<?xml version="1.0" standalone="no"?>
<!DOCTYPE svg PUBLIC "-//W3C//DTD SVG 1.1//EN" "http://www.w3.org/Graphics/SVG/1.1/DTD/svg11.dtd" >
<svg xmlns="http://www.w3.org/2000/svg">
<metadata>Generated by IcoMoon</metadata>
<defs>
<font id="fonticon-webfont" horiz-adv-x="1024">
<font-face units-per-em="1024" ascent="877.8572825024438" descent="-146.14271749755622" />
<missing-glyph horiz-adv-x="1024" />
<glyph unicode="&#x20;" horiz-adv-x="256.25024437927664" d="" />
<glyph unicode="&#xe900;" glyph-name="font-icon-window-restore" d="M921.737 764.404h-523.113c-17.605 0-31.837-14.232-31.837-31.91v-9.609c0-17.605 14.232-31.837 31.91-31.837h481.592v-481.592c0-17.678 14.232-31.91 31.91-31.91h9.609c17.605 0 31.837 14.232 31.837 31.91v523.040c0 17.678-14.232 31.91-31.91 31.91zM777.59 617.687h-674.889c-16.139 0-29.344-13.132-29.344-29.344v-674.889c0-16.139 13.205-29.344 29.344-29.344h674.889c16.213 0 29.344 13.205 29.344 29.344v674.889c0 16.213-13.205 29.344-29.344 29.344zM733.576-29.692c0-7.116-6.601-12.839-14.671-12.839h-557.517c-8.070 0-14.671 5.723-14.671 12.839v487.827c0 7.043 6.601 12.839 14.671 12.839h557.517c8.070 0 14.671-5.796 14.671-12.839v-487.827z" />
<glyph unicode="&#xe901;" glyph-name="qm-icon-align-bottom" d="M0 3.319h1027.006v-128.375h-1027.006v128.375zM64.189 260.070h898.631v-128.375h-898.631v128.375z" />
<glyph unicode="&#xe902;" glyph-name="qm-icon-align-center" d="M192.564 773.573h641.879v-128.375h-641.879v128.375zM192.564 260.070h641.879v-128.375h-641.879v128.375zM0 516.822h1027.006v-128.375h-1027.006v128.375zM0 3.319h1027.006v-128.375h-1027.006v128.375z" />
<glyph unicode="&#xe903;" glyph-name="qm-icon-align-left" d="M0 773.573h577.691v-128.375h-577.691v128.375zM0 516.822h898.631v-128.375h-898.631v128.375zM0 260.070h770.254v-128.375h-770.254v128.375zM0 3.319h1027.006v-128.375h-1027.006v128.375z" />
<glyph unicode="&#xe904;" glyph-name="qm-icon-align-middle" d="M64.189 516.822h898.631v-128.375h-898.631v128.375zM64.189 260.070h898.631v-128.375h-898.631v128.375z" />
<glyph unicode="&#xe905;" glyph-name="qm-icon-align-right" d="M449.315 773.573h577.691v-128.375h-577.691v128.375zM128.375 516.822h898.631v-128.375h-898.631v128.375zM256.751 260.070h770.254v-128.375h-770.254v128.375zM0 3.319h1027.006v-128.375h-1027.006v128.375z" />
<glyph unicode="&#xe906;" glyph-name="qm-icon-align-top" d="M0 773.573h1027.006v-128.375h-1027.006v128.375zM64.189 516.822h898.631v-128.375h-898.631v128.375z" />
<glyph unicode="&#xe907;" glyph-name="font-icon-window-maximize" d="M953.647 720.389c0 24.282-19.732 44.015-44.015 44.015h-792.262c-24.282 0-44.015-19.732-44.015-44.015v-792.262c0-24.282 19.732-44.015 44.015-44.015h792.262c24.282 0 44.015 19.732 44.015 44.015v792.262zM880.291-20.522c0-12.178-9.831-22.006-22.006-22.006h-689.561c-12.178 0-22.006 9.831-22.006 22.006v542.846c0 12.178 9.831 22.006 22.006 22.006h689.561c12.178 0 22.006-9.831 22.006-22.006v-542.846z" />
<glyph unicode="&#xe908;" glyph-name="messenger-icon-delete-type-b" d="M513.502 801.083c-262.914 0-476.825-213.911-476.825-476.825s213.911-476.825 476.825-476.825 476.825 213.911 476.825 476.825-213.911 476.825-476.825 476.825zM513.502 727.726c223.080 0 403.467-180.24 403.467-403.467s-180.386-403.467-403.467-403.467c-223.228 0-403.467 180.24-403.467 403.467s180.24 403.467 403.467 403.467zM378.085 501.637l-47.976-47.976 135.491-135.418-135.491-135.564 47.976-47.83 135.418 135.418 135.491-135.418 47.903 47.83-135.564 135.564 135.564 135.418-47.83 47.976-135.564-135.564-135.418 135.564z" />
<glyph unicode="&#xe909;" glyph-name="font-icon-triangle-down" d="M73.284 544.258l440.145-440.145 440.145 440.145h-880.291z" />
<glyph unicode="&#xe90a;" glyph-name="font-icon-triangle-up" d="M953.647 104.185l-440.145 440.145-440.145-440.145h880.291z" />
<glyph unicode="&#xe90b;" glyph-name="font-icon-arrow-down" d="M904.793 617.687l-391.289-410.802-391.216 410.802-48.93-51.35 440.145-462.152 440.145 462.152z" />
<glyph unicode="&#xe90c;" glyph-name="qm-icon-messenger-invite-member" d="M829.179 551.548v190.574h-132.419v-190.574h-187.813v-132.355h187.813v-190.51h132.419v190.51h193.205v132.355zM887.974 169.822h-256.751v188.52h-188.584v260.795h184.54v187.685c-39.346 8.088-80.234 12.903-122.728 12.903-276.072 0-499.831-183.193-499.831-409.198 0-147.054 95.127-275.687 237.431-347.834v-233.9l288.332 173.563c242.566 10.27 439.045 161.754 469.406 355.986h-111.815v-188.52z" />
<glyph unicode="&#xe90d;" glyph-name="font-icon-arrow-up" d="M122.213 104.185l391.289 410.802 391.216-410.802 48.93 51.35-440.145 462.152-440.145-462.152z" />
<glyph unicode="&#xe90e;" glyph-name="font-icon-arrow-left" d="M733.576-67.031l-410.875 391.289 410.875 391.216-51.423 48.93-462.079-440.145 462.079-440.145z" />
<glyph unicode="&#xe90f;" glyph-name="font-icon-arrow-right" d="M220.073 715.475l410.875-391.216-410.875-391.289 51.35-48.857 462.152 440.145-462.152 440.145z" />
<glyph unicode="&#xe910;" glyph-name="font-icon-new-window" d="M733.576-5.85c0-20.247-16.359-36.679-36.679-36.679h-513.502c-20.174 0-36.679 16.432-36.679 36.679v513.502c0 20.247 16.505 36.679 36.679 36.679h342.726l73.358 73.358h-452.763c-40.419 0-73.358-32.791-73.358-73.358v-586.861c0-40.568 32.937-73.358 73.358-73.358h586.861c40.568 0 73.358 32.791 73.358 73.358v452.763l-73.358-73.358v-342.726zM953.647 711.146v53.258h-366.787v-73.358h240.099l-460.172-460.172 53.404-53.331 460.098 460.098v-240.025h73.358v313.383l0.073 0.073z" />
<glyph unicode="&#xe911;" glyph-name="font-icon-refresh" d="M856.597 599.57c-80.694 100.427-204.227 164.835-343.093 164.835-231.663 0-421.072-179.067-438.458-406.327h67.709c17.093 189.922 176.425 338.618 370.749 338.618 120.086 0 226.674-57.146 294.824-145.322l-125.514-125.514h270.835v270.835l-97.053-97.126zM513.502-48.178c-102.92 0-196.011 41.668-263.281 109.082l94.045 94.045h-270.91v-270.835l128.963 128.963c79.594-79.594 189.629-128.963 311.183-128.963 208.115 0 382.119 144.661 427.821 338.545h-69.763c-44.307-156.251-187.575-270.835-358.058-270.835z" />
<glyph unicode="&#xe912;" glyph-name="messenger-icon-voting" d="M461.939 71.187l42.535 40.352 222.989 211.221-46.773 44.246-222.775-211.263-111.73 106.038-46.687-44.204 158.416-150.243zM941.508 538.176l-89.264 213.96h-677.396l-89.221-213.96v-603.622c0-21.14 15.963-38.298 35.646-38.298h784.504c19.769 0 35.646 17.118 35.646 38.298v0.6h0.085v603.024zM856.052-17.991h-684.713v470.711h684.713v-470.711zM684.671 623.801c0-23.621-19.172-42.793-42.835-42.793h-256.708c-23.664 0-42.793 19.172-42.793 42.793v0c0 23.621 19.129 42.793 42.793 42.793h256.708c23.664 0 42.835-19.172 42.835-42.793v0z" />
<glyph unicode="&#xe913;" glyph-name="qm-icon-responsive-type-a" d="M120.825 535.7h181.237v-60.412h-181.237v60.412zM362.473 535.7h181.237v-60.412h-181.237v60.412zM120.825 294.052h181.237v-60.412h-181.237v60.412zM362.473 294.052h181.237v-60.412h-181.237v60.412zM604.121 535.7h181.237v-60.412h-181.237v60.412zM604.121 294.052h181.237v-60.412h-181.237v60.412zM906.181 656.524v181.237h-906.181v-906.181h181.237v-120.825h845.769v845.769h-120.825zM174.893-8.009h-114.482v785.357h785.357v-785.357h-670.877z" />
<glyph unicode="&#xe914;" glyph-name="qm-icon-responsive-type-b" d="M120.825 716.936h664.533v-120.825h-664.533v120.825zM120.825 535.7h181.237v-120.825h-181.237v120.825zM362.473 535.7h181.237v-120.825h-181.237v120.825zM604.121 535.7h181.237v-120.825h-181.237v120.825zM120.825 354.465h181.237v-120.825h-181.237v120.825zM362.473 354.465h181.237v-120.825h-181.237v120.825zM604.121 354.465h181.237v-120.825h-181.237v120.825zM120.825 173.228h181.237v-120.825h-181.237v120.825zM362.473 173.228h181.237v-120.825h-181.237v120.825zM604.121 173.228h181.237v-120.825h-181.237v120.825zM906.181 656.524v181.237h-906.181v-906.181h181.237v-120.825h845.769v845.769h-120.825zM174.893-8.009h-114.482v785.357h785.357v-785.357h-670.877z" />
<glyph unicode="&#xe915;" glyph-name="qm-icon-bookmark" horiz-adv-x="1120" d="M560.185 837.761l173.144-338.025 387.041-54.198-280.093-263.241 66.149-371.542-346.241 175.477-346.241-175.477 66.149 371.542-280.093 263.241 387.088 54.198z" />
<glyph unicode="&#xe916;" glyph-name="qm-icon-function-group" d="M57.057 780.705h228.224v-228.224h-228.224v228.224zM399.391 780.705h228.224v-228.224h-228.224v228.224zM741.727 780.705h228.224v-228.224h-228.224v228.224zM57.057 438.37h228.224v-228.224h-228.224v228.224zM399.391 438.37h228.224v-228.224h-228.224v228.224zM741.727 438.37h228.224v-228.224h-228.224v228.224zM57.057 96.034h228.224v-228.224h-228.224v228.224zM399.391 96.034h228.224v-228.224h-228.224v228.224zM741.727 96.034h228.224v-228.224h-228.224v228.224z" />
<glyph unicode="&#xe917;" glyph-name="ep-icon-box-moving" d="M730.779 459.246l-0.384-107.643 180.368 178.699-179.020 177.543-0.384-98.978c0 0-310.862 7.768-394.434-346.037 134.473 214.58 393.857 196.415 393.857 196.415zM834.442 130.925v-63.418h-577.691v385.127h55.586l78.567 128.375h-201.229c-33.827 0-61.3-27.857-61.3-63.418v-515.556c0-35.625 27.473-62.903 61.3-62.903h735.85c33.827 0 37.292 27.281 37.292 62.903v462.538l-128.375-126.257v-207.391z" />
<glyph unicode="&#xe918;" glyph-name="messenger-icon-chat" d="M904.425 409.243c5.208-24.023 8.362-48.71 8.362-74.054 0-195.645-164.283-358.976-380.506-393.93 45.849-18.705 97.016-29.673 151.63-29.673 51.423 0 100.097 9.645 143.927 26.336 55.531-19.184 116.197-24.173 166.337-24.173-26.077 31.654-44.198 62.684-57.146 89.937 55.604 50.323 89.974 116.859 89.974 189.996 0 86.672-47.83 163.845-122.581 215.561zM420.376 736.895c-232.103 0-420.376-165.494-420.376-369.685 0-106.369 51.496-202.136 133.473-269.443-15.405-43.244-41.483-99.509-85.866-157.058 83.995 0 192.16 11.885 275.421 67.196 31.362-6.491 63.857-10.343 97.346-10.343 232.287 0 420.522 165.531 420.522 369.649 0.037 204.19-188.236 369.685-420.522 369.685zM272.083 311.531c-28.317 0-51.24 23.182-51.24 51.533 0 28.537 22.923 51.569 51.24 51.569s51.24-23.033 51.24-51.569c0.037-28.354-22.887-51.533-51.24-51.533zM425.143 311.531c-28.317 0-51.24 23.182-51.24 51.533 0 28.537 22.923 51.569 51.24 51.569s51.24-23.033 51.24-51.569c0.037-28.354-22.887-51.533-51.24-51.533zM578.755 311.531c-28.281 0-51.387 23.182-51.387 51.533 0 28.537 23.109 51.569 51.387 51.569s51.313-23.033 51.313-51.569c0.037-28.354-23.033-51.533-51.313-51.533z" />
<glyph unicode="&#xe919;" glyph-name="messenger-icon-chat-add" d="M506.999 768.438c-259.918 0-470.711-177.886-470.711-397.408 0-114.34 57.64-217.212 149.43-289.701-17.203-46.3-46.471-106.808-96.111-168.729 94.057 0 215.115 12.882 308.359 72.276 35.089-7.018 71.463-11.212 109.033-11.212 259.961 0 470.711 177.929 470.711 397.323 0 219.607-210.75 397.451-470.711 397.451zM684.671 332.86h-128.375v-128.375h-85.583v128.375h-128.375v85.583h128.375v128.375h85.583v-128.375h128.375v-85.583z" />
<glyph unicode="&#xe91a;" glyph-name="ep-icon-more-vertical" horiz-adv-x="205" d="M205.333 735.061c0-56.719-45.981-102.7-102.7-102.7s-102.7 45.981-102.7 102.7c0 56.719 45.981 102.7 102.7 102.7s102.7-45.981 102.7-102.7zM205.333 324.258c0-56.719-45.981-102.7-102.7-102.7s-102.7 45.981-102.7 102.7c0 56.719 45.981 102.7 102.7 102.7s102.7-45.981 102.7-102.7zM205.333-86.544c0-56.719-45.981-102.7-102.7-102.7s-102.7 45.981-102.7 102.7c0 56.719 45.981 102.7 102.7 102.7s102.7-45.981 102.7-102.7z" />
<glyph unicode="&#xe91b;" glyph-name="messenger-icon-comment" d="M506.999 768.438c-259.918 0-470.711-177.886-470.711-397.408 0-114.34 57.64-217.212 149.43-289.701-17.203-46.3-46.471-106.808-96.111-168.729 94.057 0 215.115 12.882 308.359 72.276 35.089-7.018 71.463-11.212 109.033-11.212 259.961 0 470.711 177.929 470.711 397.323 0 219.607-210.75 397.451-470.711 397.451zM309.471 314.33c-29.57 0-53.489 24.005-53.489 53.489 0 29.57 23.92 53.489 53.489 53.489s53.489-23.92 53.489-53.489c0-29.527-23.92-53.489-53.489-53.489zM523.431 314.33c-29.57 0-53.489 24.005-53.489 53.489 0 29.57 23.92 53.489 53.489 53.489 29.527 0 53.489-23.92 53.489-53.489 0-29.527-23.92-53.489-53.489-53.489zM737.39 314.33c-29.484 0-53.489 24.005-53.489 53.489 0 29.57 24.005 53.489 53.489 53.489s53.489-23.92 53.489-53.489c0-29.527-23.962-53.489-53.489-53.489z" />
<glyph unicode="&#xe91c;" glyph-name="messenger-icon-list" d="M599.086 752.178h-342.335c-47.071 0-85.156-38.514-85.156-85.583l-0.427-684.671c0-47.071 38.084-85.583 85.156-85.583h513.931c47.071 0 85.583 38.514 85.583 85.583v513.502l-256.751 256.751zM684.671 67.507h-342.335v85.583h342.335v-85.583zM684.671 238.675h-342.335v85.583h342.335v-85.583zM556.295 452.633v235.356l235.356-235.356h-235.356z" />
<glyph unicode="&#xe91d;" glyph-name="messenger-icon-file-add" d="M599.086 752.178h-342.335c-47.071 0-85.156-38.514-85.156-85.583l-0.427-684.671c0-47.071 38.084-85.583 85.156-85.583h513.931c47.071 0 85.583 38.514 85.583 85.583v513.502l-256.751 256.751zM684.671 153.090h-128.375v-128.375h-85.583v128.375h-128.375v85.583h128.375v128.375h85.583v-128.375h128.375v-85.583zM556.295 452.633v235.356l235.356-235.356h-235.356z" />
<glyph unicode="&#xe91e;" glyph-name="messenger-icon-check" d="M599.086 752.178h-342.335c-47.071 0-85.156-38.514-85.156-85.583l-0.427-684.671c0-47.071 38.127-85.583 85.156-85.583h513.973c47.029 0 85.541 38.514 85.541 85.583v513.502l-256.751 256.751zM556.337 452.633v235.356l235.356-235.356h-235.356zM471.224 41.66l-158.63 158.588 60.508 60.55 98.123-98.165 183.748 183.748 60.465-60.508-244.213-244.213z" />
<glyph unicode="&#xe91f;" glyph-name="messenger-icon-table" d="M469.384 248.388h88.279v-87.681h-88.279v87.681zM596.39 122.152h88.279v-87.767h-88.279v87.767zM596.39 248.388h88.279v-87.681h-88.279v87.681zM469.384 122.152h88.279v-87.767h-88.279v87.767zM599.086 752.178h-342.335c-47.071 0-85.156-38.514-85.156-85.583l-0.427-684.671c0-47.071 38.127-85.583 85.156-85.583h513.931c47.071 0 85.583 38.514 85.583 85.583v513.502l-256.751 256.751zM727.462-8.363h-427.919v299.544h427.919v-299.544zM727.462 333.031h-427.919v42.793h427.919v-42.793zM556.295 452.633v235.356l235.356-235.356h-235.356zM342.335 122.152h88.279v-87.767h-88.279v87.767zM342.335 248.388h88.279v-87.681h-88.279v87.681z" />
<glyph unicode="&#xe920;" glyph-name="messenger-icon-bookmark" d="M513.502 98.746l264.454-159.615-70.178 300.827 233.644 202.405-307.631 26.102-120.287 283.711-120.244-283.711-307.673-26.102 233.644-202.363-70.178-300.87 264.454 159.615z" />
<glyph unicode="&#xe921;" glyph-name="messenger-icon-clear" d="M125.662 764.404l-52.304-52.304 26.19-26.041 361.8-361.8-387.989-387.989 52.304-52.158 387.841 387.841 387.989-387.841 52.158 52.158-26.041 26.19-361.8 361.8 387.841 387.841-52.158 52.304-26.19-26.041-361.8-361.946-387.841 387.989z" />
<glyph unicode="&#xe922;" glyph-name="messenger-icon-delete" d="M513.502 752.178c-236.64 0-427.919-191.28-427.919-427.919 0-236.597 191.28-427.919 427.919-427.919 236.597 0 427.919 191.323 427.919 427.919 0 236.64-191.323 427.919-427.919 427.919zM727.462 170.636l-60.337-60.337-153.623 153.623-153.623-153.623-60.337 60.337 153.623 153.623-153.623 153.623 60.337 60.337 153.623-153.623 153.623 153.623 60.337-60.337-153.623-153.623 153.623-153.623z" />
<glyph unicode="&#xe923;" glyph-name="messenger-icon-notifications" d="M513.502-103.661c47.071 0 85.583 38.514 85.583 85.583h-171.168c0-47.071 38.084-85.583 85.583-85.583zM770.254 153.090v213.96c0 131.371-70.222 241.346-192.564 270.445v29.097c0 35.518-28.671 64.189-64.189 64.189s-64.189-28.671-64.189-64.189v-29.097c-122.813-29.097-192.564-138.645-192.564-270.445v-213.96l-85.583-85.583v-42.793h684.671v42.793l-85.583 85.583z" />
<glyph unicode="&#xe924;" glyph-name="messenger-icon-notifications-off" d="M855.838 38.023l-630.325 650.395-54.346-54.346 119.818-119.818v-0.427c-22.253-42.363-34.232-92.43-34.232-146.349v-213.96l-85.583-85.583v-42.793h587.533l85.583-85.583 54.346 54.346-42.793 44.118zM513.502-103.661c47.455 0 85.583 38.127 85.583 85.583h-171.168c0-47.455 38.084-85.583 85.583-85.583zM770.254 209.576v157.474c0 131.799-70.222 241.346-192.564 270.445v29.097c0 35.518-28.671 64.189-64.189 64.189s-64.189-28.671-64.189-64.189v-29.097c-6.418-1.283-12.409-3.422-17.974-5.135-4.279-1.283-8.557-2.996-12.839-4.708h-0.427c-0.427 0-0.427 0-0.856-0.427-9.843-3.852-19.684-8.557-29.097-13.266 0 0-0.427 0-0.427-0.427l382.56-403.955z" />
<glyph unicode="&#xe925;" glyph-name="messenger-icon-user" d="M665.071 291.736c62.69 46.556 103.556 120.973 103.556 205.101 0.085 141.129-114.254 255.339-255.126 255.339-141.042 0-255.211-114.211-255.211-255.339 0-84.129 40.867-158.545 103.514-205.101-139.544-55.973-240.961-186.53-254.826-342.55v-3.465c0-27.217 21.994-49.381 49.125-49.381 27.173 0 49.125 22.167 49.125 49.381v3.465h-0.128c18.102 154.48 149.129 274.254 308.359 274.254s290.214-119.775 308.359-274.254h-0.085v-3.465c0-27.26 21.994-49.381 49.125-49.381 27.217 0 49.125 22.167 49.125 49.381v3.465c-13.82 156.019-115.367 286.62-254.911 342.55zM513.502 335.128c-89.306 0-161.626 72.319-161.626 161.711s72.276 161.711 161.626 161.711c89.306 0 161.626-72.405 161.626-161.754s-72.362-161.669-161.626-161.669z" />
<glyph unicode="&#xe926;" glyph-name="messenger-icon-master" horiz-adv-x="841" d="M420.138 837.761l-420.138-186.728v-280.093c0-259.039 179.26-501.413 420.138-560.185 240.88 58.818 420.138 301.147 420.138 560.185v280.093l-420.138 186.728zM326.774 90.941l-186.728 186.635 65.821 65.821 120.907-120.44 307.635 307.635 65.821-66.29-373.457-373.364z" />
<glyph unicode="&#xe927;" glyph-name="messenger-icon-download" d="M813.046 452.633h-171.168v256.751h-256.751v-256.751h-171.168l299.544-299.544 299.544 299.544zM213.96 67.507v-85.583h599.086v85.583h-599.086z" />
<glyph unicode="&#xe928;" glyph-name="messenger-icon-link" d="M166.889 324.258c0 73.173 59.481 132.655 132.655 132.655h171.168v81.304h-171.168c-118.105 0-213.96-95.854-213.96-213.96s95.854-213.96 213.96-213.96h171.168v81.304h-171.168c-73.173 0-132.655 59.481-132.655 132.655zM342.335 281.466h342.335v85.583h-342.335v-85.583zM727.462 538.218h-171.168v-81.304h171.168c73.173 0 132.655-59.481 132.655-132.655s-59.481-132.655-132.655-132.655h-171.168v-81.304h171.168c118.105 0 213.96 95.854 213.96 213.96s-95.854 213.96-213.96 213.96z" />
<glyph unicode="&#xe929;" glyph-name="messenger-icon-group" d="M513.502 808.063c141.555 0 256.751-115.281 256.751-256.751s-115.195-256.751-256.751-256.751c-141.47 0-256.751 115.281-256.751 256.751s115.281 256.751 256.751 256.751zM1027.006-159.547h-1027.006v85.67c0 171.082 342.335 256.751 513.502 256.751 171.253 0 513.502-85.67 513.502-256.751v-85.67z" />
<glyph unicode="&#xe92a;" glyph-name="messenger-icon-search" d="M663.274 238.675h-33.806l-11.983 11.553c41.936 48.784 67.184 112.114 67.184 181.010 0 153.623-124.524 278.147-278.147 278.147s-278.147-124.524-278.147-278.147 124.524-278.147 278.147-278.147c68.894 0 132.227 25.248 181.010 67.184l11.553-11.983v-33.806l213.96-213.532 63.759 63.759-213.532 213.96zM406.523 238.675c-106.552 0-192.564 86.012-192.564 192.564s86.012 192.564 192.564 192.564 192.564-86.012 192.564-192.564-86.012-192.564-192.564-192.564z" />
<glyph unicode="&#xe92b;" glyph-name="font-icon-ci" d="M220.147 837.761h-73.432v-73.358h0.073v-366.787h-0.073v-513.502h733.576v146.715h-73.358v-73.358h-586.861v366.787h440.145v73.358h-440.072v366.787h586.787v-73.358h73.358v146.715zM293.504 691.046v-220.073h440.072v73.358h-366.714v73.358h440.072v73.358h-440.072zM366.787 104.185v73.358h366.787v73.358h-440.145v-220.073h513.502v73.358z" />
<glyph unicode="&#xe92c;" glyph-name="messenger-icon-more" d="M256.751 409.842c-47.071 0-85.583-38.514-85.583-85.583s38.514-85.583 85.583-85.583 85.583 38.514 85.583 85.583c0 47.071-38.514 85.583-85.583 85.583zM770.254 409.842c-47.071 0-85.583-38.514-85.583-85.583s38.514-85.583 85.583-85.583 85.583 38.514 85.583 85.583c0 47.071-38.514 85.583-85.583 85.583zM513.502 409.842c-47.071 0-85.583-38.514-85.583-85.583s38.514-85.583 85.583-85.583c47.071 0 85.583 38.514 85.583 85.583s-38.514 85.583-85.583 85.583z" />
<glyph unicode="&#xe92d;" glyph-name="messenger-icon-setup" d="M831.446 282.322c1.755 13.692 2.996 27.43 2.996 41.936s-1.24 28.244-2.996 41.936l90.291 70.607c8.131 6.418 10.227 17.974 5.135 27.388l-85.583 148.060c-5.135 9.414-16.731 12.839-26.102 9.414l-106.509-42.793c-22.295 17.118-46.215 31.238-72.319 41.936l-16.261 113.4c-1.326 10.27-10.313 17.974-21.010 17.974h-171.168c-10.697 0-19.684-7.704-20.967-17.974l-16.261-113.4c-26.102-10.697-50.067-25.248-72.319-41.936l-106.552 42.793c-9.843 3.852-20.967 0-26.102-9.414l-85.583-148.060c-5.562-9.414-2.996-20.967 5.135-27.388l90.291-70.607c-1.713-13.692-2.996-27.814-2.996-41.936s1.283-28.244 2.996-41.936l-90.291-70.607c-8.131-6.418-10.27-17.974-5.135-27.388l85.583-148.102c5.135-9.414 16.688-12.839 26.102-9.414l106.552 42.793c22.253-17.075 46.215-31.194 72.319-41.894l16.261-113.4c1.283-10.27 10.27-17.974 20.967-17.974h171.168c10.697 0 19.684 7.704 20.967 17.974l16.261 113.4c26.102 10.697 50.067 25.248 72.319 41.894l106.509-42.793c9.801-3.852 20.967 0 26.102 9.414l85.583 148.102c5.092 9.414 2.996 20.924-5.135 27.388l-90.248 70.607zM513.502 174.487c-82.589 0-149.771 67.184-149.771 149.771s67.184 149.771 149.771 149.771c82.589 0 149.771-67.184 149.771-149.771s-67.184-149.771-149.771-149.771z" />
<glyph unicode="&#xe92e;" glyph-name="messenger-icon-users" horiz-adv-x="1324" d="M669.608 285.96c75.271 55.799 124.352 145.108 124.352 246.139 0 169.284-137.106 306.39-306.176 306.39-169.156 0-306.176-137.106-306.176-306.39 0-100.989 49.040-190.296 124.224-246.139-167.401-67.355-289.187-223.887-305.748-411.188v-4.108c0-32.779 26.318-59.182 58.881-59.182s58.881 26.489 58.881 59.182v4.108c21.738 185.375 178.956 329.198 369.894 329.198s348.24-143.823 369.979-329.198h-0.085v-4.108c0-32.779 26.318-59.182 58.924-59.182 32.437 0 58.924 26.489 58.924 59.182v4.108c-16.645 187.301-138.389 343.833-305.876 411.188zM487.742 337.909c-107.151 0-193.89 86.826-193.89 194.104 0 107.238 86.697 194.061 193.89 194.061s193.847-86.826 193.847-194.061c0-107.238-86.697-194.104-193.847-194.104zM1325.009-123.644c-16.947 186.53-138.090 342.592-304.294 409.604 74.971 55.757 123.712 145.021 123.712 246.139 0 169.242-136.548 306.39-304.807 306.39-40.053 0-77.967-8.216-113.013-22.381 21.055-16.56 61.279-51.822 80.234-93.201 10.697 1.883 21.482 3.294 32.779 3.294 106.723 0 193.077-86.783 193.077-194.061 0-107.323-86.353-194.232-193.077-194.232-11.94 0-23.578 1.454-35.003 3.55-12.281-15.405-25.974-29.527-40.781-42.406 3.937-1.969 8.859-4.449 13.951-7.488 26.659-11.041 71.463-37.143 113.997-91.789 165.476-23.578 295.692-156.19 315.847-323.464h-0.256v-4.193c0-32.693 26.403-59.182 59.011-59.182 32.523 0 58.838 26.659 58.838 59.182v4.193h-0.213v0.043z" />
<glyph unicode="&#xe92f;" glyph-name="messenger-icon-lock" horiz-adv-x="829" d="M775.86 392.341c3.809 21.823 5.906 44.246 5.906 67.184 0 208.567-164.792 378.238-367.283 378.238s-367.283-169.67-367.283-378.238c0-22.935 2.097-45.359 5.906-67.184-31.88-20.369-53.105-55.973-53.105-96.623v-370.279c0-63.375 51.35-114.683 114.683-114.683h599.6c63.29 0 114.683 51.307 114.683 114.683v0 370.279c-0.043 40.653-21.226 76.254-53.105 96.623zM642.007 410.355h-455.092c-3.124 15.875-4.794 32.352-4.794 49.168 0 134.153 104.242 243.272 232.317 243.272 128.119 0 232.317-109.119 232.317-243.272 0-16.816-1.627-33.292-4.751-49.168z" />
<glyph unicode="&#xe930;" glyph-name="messenger-icon-out" d="M787.371-60.869h-658.996v770.254h658.996c14.165 0 25.675 11.51 25.675 25.675v77.025c0 14.165-11.51 25.675-25.675 25.675h-779.754c-4.193 0-7.616-3.852-7.616-8.557v-1009.888c0-4.708 3.422-8.557 7.616-8.557h779.754c14.165 0 25.675 11.51 25.675 25.675v77.025c0 14.165-11.51 25.675-25.675 25.675zM1027.006 324.944l-299.544 256.751v-171.852h-342.335v-171.168h342.335v-170.482z" />
<glyph unicode="&#xe931;" glyph-name="messenger-icon-circle" d="M513.502 837.761c283.197 0 513.502-230.478 513.502-513.502s-230.306-513.502-513.502-513.502c-283.025 0-513.502 230.478-513.502 513.502s230.478 513.502 513.502 513.502z" />
<glyph unicode="&#xe932;" glyph-name="qm-icon-tutorial" d="M513.502 644.984c-123.798 0-228.637-84.342-265.438-202.148-9.158-29.183-14.25-60.38-14.25-92.902 0-127.049 124.825-241.775 159.785-319.741 5.863-12.281 9.627-26.361 12.068-40.952h215.671c2.353 14.591 6.247 28.671 12.025 40.952 25.846 57.64 100.646 135.308 138.048 223.289 13.266 31.023 21.823 63.205 21.823 96.453 0 163.893-125.251 295.051-279.731 295.051zM622.281-77.044c0-12.025-9.843-21.738-22.082-21.738h-173.307c-12.196 0-22.082 9.712-22.082 21.738v0c0 12.025 9.843 21.738 22.082 21.738h173.35c12.196 0 22.037-9.712 22.037-21.738v0zM622.323-167.506c0-12.025-9.843-21.738-22.082-21.738h-173.35c-12.153 0-22.082 9.712-22.082 21.738v0c0 12.025 9.886 21.738 22.082 21.738h173.392c12.196 0 22.037-9.712 22.037-21.738v0zM470.711 837.761h85.583v-128.375h-85.583v128.375zM845.802 742.251l60.516-60.516-90.775-90.775-60.516 60.516 90.775 90.775zM151.321 681.717l60.516 60.516 90.775-90.775-60.516-60.516-90.775 90.775zM864.396 436.33h128.375v-85.583h-128.375v85.583zM34.232 436.33h128.375v-85.583h-128.375v85.583z" />
<glyph unicode="&#xe933;" glyph-name="messenger-icon-detail" d="M912.868 85.059l-70.677 81.133v0.093l-28.989 33.331c-48.362-28.989-105.316-44.533-165.582-40.239-153.724 11.716-268.748 144.061-257.079 295.684 11.859 151.67 145.881 265.108 299.745 253.577 153.724-11.576 268.982-143.874 257.218-295.498-4.67-59.659-29.082-112.551-65.449-155.592l28.896-32.864h0.419l112.551-129.776c1.821 7.797 3.081 15.731 3.081 24.040v616.11c0 56.485-46.215 102.7-102.7 102.7h-821.605c-56.438 0-102.188-46.215-102.188-102.7l-0.515-924.306 205.401 205.401h718.904c14.564 0 28.384 3.174 40.94 8.731l-52.377 60.174zM168.149 465.472h169.222c-0.233-2.054-0.608-4.061-0.748-6.162-1.589-24.183-0.515-47.804 2.473-70.863h-170.95v77.025zM168.149 234.395v77.025h180.473c9.898-28.008 23.109-53.872 39.026-77.025h-219.499zM352.356 542.497h-184.208v77.025h219.779c-14.75-23.342-26.795-49.203-35.573-77.025zM481.759 448.153c-7.844-102.188 69.277-190.789 172.864-198.773 103.867-7.844 193.777 68.344 201.667 170.53 7.937 102.141-69.23 191.070-173.051 198.819-103.541 7.89-193.544-68.437-201.48-170.576z" />
<glyph unicode="&#xe934;" glyph-name="messenger-icon-speaker" d="M1027.006 407.24c0 201.499-58.951 364.998-131.869 366.282 0.307 0 0.566 0.051 0.873 0.051h-83.187c0 0-195.388-146.759-476.582-204.323-8.574-45.393-14.071-99.517-14.071-161.959 0-62.391 5.493-116.566 14.071-161.959 281.245-57.563 476.582-204.323 476.582-204.323h83.187c-0.307 0-0.566 0.051-0.873 0.051 72.917 1.181 131.869 164.629 131.869 366.179zM867.357 96.365c-9.448 0-19.564 9.758-24.802 15.61-12.682 14.071-24.802 36.047-35.329 63.52-23.314 61.313-36.15 143.678-36.15 231.795s12.839 170.38 36.15 231.795c10.475 27.473 22.594 49.398 35.329 63.52 5.289 5.855 15.405 15.61 24.802 15.61s19.615-9.758 24.802-15.61c12.631-14.071 24.853-36.047 35.329-63.52 23.314-61.364 36.15-143.729 36.15-231.795s-12.839-170.328-36.15-231.795c-10.424-27.473-22.645-49.45-35.329-63.52-5.237-5.855-15.456-15.61-24.802-15.61zM252.541 407.24c0 52.070 3.801 102.7 11.092 149.532-47.498-6.572-89.195-10.372-140.75-10.372-67.27 0-67.27 0-67.27 0l-55.612-94.948v-88.424l55.612-94.999c0 0 0 0 67.27 0 51.555 0 93.201-3.75 140.75-10.321-7.291 46.781-11.092 97.411-11.092 149.532v0zM369.209 193.674l-128.375 24.597 82.109-322.429c4.262-16.739 20.796-25.11 36.767-18.742l118.927 47.6c15.971 6.418 22.389 24.083 14.224 39.231l-123.653 229.741zM867.357 287.388c-3.596 0-7.496 3.75-9.55 6.008-4.93 5.391-9.601 13.917-13.607 24.494-9.038 23.672-13.968 55.407-13.968 89.349s4.981 65.677 13.968 89.349c4.006 10.577 8.677 19.001 13.607 24.494 2.003 2.259 5.906 6.008 9.55 6.008s7.547-3.75 9.601-6.008c4.93-5.391 9.601-13.917 13.607-24.494 8.987-23.672 13.917-55.407 13.917-89.349s-4.981-65.677-13.917-89.349c-4.006-10.577-8.677-19.001-13.607-24.494-2.054-2.259-6.008-6.008-9.601-6.008z" />
<glyph unicode="&#xe935;" glyph-name="qm-icon-search" d="M698.813 197.552c44.74 63.032 71.378 139.865 71.378 222.989 0 212.654-172.472 385.127-384.999 385.127-212.719 0-385.191-172.472-385.191-385.127 0-212.719 172.472-385.127 385.191-385.127 83.123 0 159.892 26.574 222.86 71.314l263.941-263.876 90.762 90.762-263.941 263.941zM385.127 99.601c-177.351 0-320.939 143.716-320.939 320.939 0 177.287 143.652 320.939 320.939 320.939s320.939-143.652 320.939-320.939c0-177.223-143.652-320.939-320.939-320.939z" />
<glyph unicode="&#xe936;" glyph-name="font-icon-check" d="M124.635 353.602l219.339-219.046 557.077 556.49 52.596-52.523-608.355-607.693-271.937 271.643z" />
<glyph unicode="&#xe937;" glyph-name="tutorial-icon-popover" d="M73.358 837.761v-660.365h0.219v-73.21h219.999v-293.43l146.568 0.073v73.358h73.21v73.136h73.063v73.358h-146.642v-73.136h-72.844v219.999h-220.22v440.145h806.932v-440.292h-366.641v-73.063h-73.284v-73.358h73.063v-0.146h73.358v73.21h366.861v733.723z" />
<glyph unicode="&#xe938;" glyph-name="tutorial-icon-popover-sm" d="M73.358 764.404v-660.218h73.432v0.366h146.642v-220.512l146.715 0.073v73.358h73.358v73.358h73.358v73.358h366.787v660.218h-880.291zM880.291 177.543h-366.495v-73.358h-73.358v-73.358h-73.432v-73.358h-0.219v219.926h-0.073v0.515h-219.926v366.421h733.502v-366.787z" />
<glyph unicode="&#xe939;" glyph-name="messenger-icon-ec" horiz-adv-x="1548" d="M681.769 17.404h-478.787v67.714h444.674c-5.8 13.57-11.232 27.342-16.046 41.176-3.342 9.343-6.378 18.62-9.086 28.080h-487.227v-204.576h545.994v-67.523h-613.658v339.711h539.116c-3.791 22.297-6.314 44.984-7.667 67.714h-599.095v-476.765h749.045v112.254c-10.786 12.446-21.012 25.326-31.059 38.664-13.251 17.077-25.262 34.921-36.199 53.549zM606.622 426.524h-538.962v341.464h613.658v-69.184h-545.994v-204.512h487.163c0.903 3.177 1.805 6.121 2.832 9.15 6.186 19.733 13.315 39.307 21.497 58.509h-443.87v69.184h478.528c7.734 13.060 15.917 25.84 24.68 38.083 13.57 18.774 27.634 37.248 42.811 54.839v111.609h-748.98v-476.728h598.966c1.352 22.682 3.855 45.239 7.667 67.613zM1199.527 697.944c-204.832-2.062-370.331-168.573-370.331-373.686 0-205.023 165.454-371.7 370.421-373.686v-0.129h231.467c-16.817 21.37-32.219 43.834-46.203 67.422h-180.988c-168.187 1.741-303.703 138.223-303.703 306.407s135.58 304.734 303.703 306.407v0.064h180.029c13.856 23.392 29.103 45.882 45.882 67.203h-230.242zM1203.076 563.263v0c-130.872-1.352-236.756-107.794-236.756-239.005s105.873-237.653 236.756-239.005v0h147.237c-8.698 19.898-16.367 40.467-22.875 61.285-0.646 1.869-1.031 3.791-1.741 5.8h-118.955c-94.404 0.838-170.466 77.496-170.466 171.938 0 94.596 76.024 171.17 170.466 172.129v0h119.342c6.635 22.811 14.756 45.085 24.035 66.909h-147.070zM1546.537 835.651h-346.296c-280.118-2.896-506.58-230.757-506.58-511.392 0-280.699 226.438-508.498 506.617-511.263v-0.129h346.231v24.68c-17.398 13.214-33.959 27.187-49.813 41.758h-292.242c-243.852 2.731-440.703 200.73-440.703 444.931s196.841 442.4 440.638 444.893v0.064h290.618c16.239 15.209 33.638 29.552 51.477 43.066v23.392z" />
<glyph unicode="&#xe93a;" glyph-name="messenger-icon-tower" d="M749.116 713.108l-64.786-62.049c41.379-40.096 67.054-95.127 67.054-155.891 0-60.721-25.803-115.752-67.054-155.805l64.786-62.178c58.411 55.93 94.185 133.041 94.185 217.982 0 84.985-35.774 162.053-94.185 217.939zM1027.006 495.212c0 133.853-56.485 254.954-147.845 342.55l-64.829-62.092c74.416-71.762 120.802-170.825 120.802-280.458s-46.386-208.739-121.271-279.944l64.786-62.092c91.875 87.082 148.36 208.225 148.36 342.036zM277.805 277.701l64.786 62.049c-41.293 40.138-67.097 95.17-67.097 155.933 0 60.678 25.803 115.752 67.054 155.848l-64.744 62.049c-58.326-55.93-94.143-132.998-94.143-217.939 0-84.985 35.774-162.010 94.143-217.939zM0 495.682c0-133.897 56.4-254.911 147.888-342.592l64.701 62.092c-74.416 71.805-120.759 170.869-120.759 280.501 0 109.59 46.343 208.696 121.229 279.987l-64.744 62.049c-91.875-87.167-148.318-208.225-148.318-342.036zM620.483 495.426c0-59.084-47.897-106.979-106.979-106.979s-106.979 47.897-106.979 106.979c0 59.084 47.897 106.979 106.979 106.979s106.979-47.897 106.979-106.979zM470.711 442.621h85.583v-568.789h-85.583v568.789zM770.254-135.755c0-29.542-114.951-53.489-256.751-53.489s-256.751 23.947-256.751 53.489c0 29.542 114.951 53.489 256.751 53.489s256.751-23.947 256.751-53.489z" />
<glyph unicode="&#xe93b;" glyph-name="qm-icon-personalization" d="M128.375-98.868v-90.376h898.631v90.376c0 185.054-298.345 283.967-449.315 283.967s-449.315-98.914-449.315-283.967zM789.318 499.619c0 122.856-101.545 224.657-224.657 224.657-122.599 0-224.593-101.801-224.593-224.657 0-122.728 101.995-224.529 224.593-224.529 123.112 0 224.657 101.865 224.657 224.529z" />
<glyph unicode="&#xe93c;" glyph-name="qm-icon-email" d="M930.724 709.386h-834.442c-53.148 0-96.282-43.134-96.282-96.282v-641.879c0-53.148 43.134-96.282 96.282-96.282h834.442c53.148 0 96.282 43.134 96.282 96.282v641.879c0 53.148-43.134 96.282-96.282 96.282zM898.631 645.197c4.687 0 8.795-1.67 13.159-2.633 22.594-4.815 39.797-20.988 46.665-42.686l-445.335-386.924-111.044 96.41-53.532 46.73-280.051 243.015c6.61 22.21 24.005 38.642 47.114 43.518 4.236 0.899 8.28 2.569 12.772 2.569h770.254zM64.189 509.441l232.168-201.871-232.168-216.377v418.248zM128.375-60.869c-8.408 0-16.368 1.862-23.749 4.751-5.135 2.118-9.499 5.455-13.866 8.795-1.606 1.283-3.465 1.99-4.943 3.401-10.654 10.014-17.843 23.749-19.961 39.090 0 0.384-0.128 0.643-0.192 1.027l284.481 264.903 162.973-141.726 163.229 141.726 284.93-265.545c-0.128-0.835-0.384-1.475-0.579-2.246-1.155-6.869-3.081-13.607-6.162-19.641-0.384-0.707-0.963-1.219-1.219-1.67-3.337-5.906-7.381-11.297-12.132-15.789-2.182-1.99-4.943-3.337-7.445-5.007-3.66-2.502-7.061-5.391-11.297-7.061-7.253-3.145-15.277-5.007-23.813-5.007h-770.254zM962.817 90.422l-232.809 217.148 232.809 202.513v-419.66z" />
<glyph unicode="&#xe93d;" glyph-name="qm-icon-logout" d="M930.724 837.761h-834.442c-53.212 0-96.282-43.070-96.282-96.282v-224.657h64.189v205.465c0 28.308 22.978 51.286 51.35 51.286h795.994c28.372 0 51.286-22.978 51.286-51.286v-795.93c0-28.372-22.914-51.414-51.286-51.414h-795.994c-28.372 0-51.35 23.043-51.35 51.414v205.337h-64.189v-224.657c0-53.148 43.070-96.282 96.282-96.282h834.442c53.276 0 96.282 43.134 96.282 96.282v834.442c0 53.212-43.006 96.282-96.282 96.282zM547.33 260.070l-162.202-171.125 81.133-85.627 303.994 320.939-303.994 320.939-81.133-85.562 162.202-171.189h-547.33v-128.375h64.189z" />
<glyph unicode="&#xe93e;" glyph-name="qm-icon-memo" d="M256.687 195.883h320.939v-64.189h-320.939v64.189zM256.687 324.258h449.315v-64.189h-449.315v64.189zM256.687 452.633h449.315v-64.189h-449.315v64.189zM834.378 837.761h-706.067c-35.497 0-64.124-28.756-64.124-64.189v-898.631c0-35.497 28.628-64.189 64.124-64.189h706.067c35.497 0 64.189 28.692 64.189 64.189v898.631c0 35.433-28.692 64.189-64.189 64.189zM834.378-92.963c0-17.651-14.378-32.093-32.093-32.093h-641.879c-17.651 0-32.093 14.442-32.093 32.093v738.16h706.067v-738.16z" />
<glyph unicode="&#xe93f;" glyph-name="qm-icon-messenger" d="M1027.006 189.143c0 81.069-34.726 155.077-92.046 212.333-5.135-119.196-67.846-245.39-180.56-337.243-119.583-97.501-265.93-131.52-388.529-103.599 69.964-61.3 167.723-99.555 276.136-99.555 30.682 0 60.401 3.596 89.157 9.307 76.19-49.040 175.361-59.63 252.194-59.63-40.632 51.158-64.509 101.032-78.695 139.288 75.357 59.822 122.341 144.551 122.341 239.099zM417.157 773.573c-230.435 0-417.157-160.084-417.157-357.591 0-103.022 50.966-195.517 132.483-260.731-15.341-41.723-41.272-96.154-85.241-151.932 83.187 0 190.702 11.553 273.248 65.086 31.13-6.29 63.354-10.142 96.602-10.142 230.563-0.064 417.35 160.212 417.35 357.719s-186.786 357.591-417.286 357.591z" />
<glyph unicode="&#xe940;" glyph-name="qm-icon-msg" d="M603.045 577.865c-12.708 41.336-51.030 71.698-97.117 71.826l-339.875-0.192c-56.229 0.192-101.801-44.868-101.865-100.39v-468.957c0-55.33 45.638-100.326 101.93-100.39l339.811 0.128c45.959 0 84.535 30.298 97.181 71.698l-221.063 217.918-137.94-136.079-45.959 45.316 137.94 136.015-137.94 136.015 45.959 45.252 137.94-135.951 220.999 217.789zM787.649 699.95l-92.174-90.633c-12.516-12.452-12.644-32.736 0-45.38l183.962-181.267c12.644-12.452 33.443-12.452 45.959 0l92.174 90.633c12.644 12.516 12.516 32.864 0 45.316l-183.962 181.267c-12.839 12.644-33.314 12.644-45.959 0.064zM625.254 507.064l-174.526-172.024c-12.068-11.812-12.132-31.002 0-42.942l349.118-344.047c12.004-11.94 31.581-11.94 43.649 0l174.526 172.024c12.068 12.004 12.068 31.194 0 43.006l-349.054 343.983c-12.26 11.94-31.581 11.94-43.713 0z" />
<glyph unicode="&#xe941;" glyph-name="qm-icon-new-window" d="M128.375-96.493v420.751h-64.189v-449.315c0-35.497 28.692-64.189 64.189-64.189h577.691v64.189h-548.1c-16.304 0-29.591 12.772-29.591 28.564zM641.879 452.633h-64.189v-128.375h-128.375v-64.189h128.375v-128.375h64.189v128.375h128.375v64.189h-128.375zM962.817 773.573h-706.067c-35.497 0-64.189-28.756-64.189-64.189v-706.067c0-35.368 28.692-64.059 64.189-64.059h706.067c35.497 0 64.189 28.692 64.189 64.059v706.067c0 35.433-28.692 64.189-64.189 64.189zM513.502 709.386h64.189v-64.189h-64.189v64.189zM385.127 709.386h64.189v-64.189h-64.189v64.189zM256.751 709.386h64.189v-64.189h-64.189v64.189zM962.817 35.413c0-17.779-14.314-32.093-32.093-32.093h-641.879c-17.651 0-32.093 14.314-32.093 32.093v513.502c0 17.715 14.442 32.093 32.093 32.093h641.879c17.779 0 32.093-14.378 32.093-32.093v-513.502z" />
<glyph unicode="&#xe942;" glyph-name="qm-icon-notification" d="M866.536 167.512v259.383c0 126.321-94.805 231.91-224.657 268.113v46.471c0 53.148-43.134 96.282-96.282 96.282s-96.282-43.134-96.282-96.282v-46.471c-129.853-36.201-224.657-141.79-224.657-268.113v-259.447l-96.282-107.259v-56.87h834.442v56.87l-96.282 107.323zM545.597-189.245c70.927 0 128.375 57.448 128.375 128.375h-256.751c0-70.927 57.512-128.375 128.375-128.375z" />
<glyph unicode="&#xe943;" glyph-name="qm-icon-sms" d="M770.254 837.761h-513.502c-35.497 0-64.189-28.692-64.189-64.189v-898.631c0-35.497 28.692-64.189 64.189-64.189h513.502c35.497 0 64.189 28.692 64.189 64.189v898.631c0 35.497-28.692 64.189-64.189 64.189zM577.691-92.963c0-17.715-14.378-32.093-32.093-32.093h-64.189c-17.715 0-32.093 14.378-32.093 32.093v64.189c0 17.715 14.378 32.093 32.093 32.093h64.189c17.715 0 32.093-14.378 32.093-32.093v-64.189zM770.254 67.443h-513.502v641.943h513.502v-641.943z" />
<glyph unicode="&#xe944;" glyph-name="qm-icon-optimization" d="M962.817 773.573h-898.631c-35.497 0-64.189-28.692-64.189-64.189v-770.254c0-35.497 28.692-64.189 64.189-64.189h320.939v64.189h-288.846c-17.715 0-32.093 14.314-32.093 32.093v577.691c0 17.651 14.378 32.093 32.093 32.093h834.442c17.715 0 32.093-14.442 32.093-32.093v-32.093h64.189v192.564c0 35.497-28.756 64.189-64.189 64.189zM128.375 645.197h-64.189v64.189h64.189v-64.189zM256.751 645.197h-64.189v64.189h64.189v-64.189zM385.127 645.197h-64.189v64.189h64.189v-64.189zM929.953 256.925c-4.879 17.395-12.004 33.955-20.54 49.488-0.643 18.934 57.32 70.735 57.256 77.346-0.128 7.125-57.448 64.765-64.829 64.765-6.869 0-58.989-57.768-77.089-54.751-15.341 9.051-31.645 16.56-48.912 22.082-1.155 0.643-2.502 1.155-4.044 1.734-14.122 12.26-9.627 90.762-14.442 95.383-5.135 5.007-86.46 5.135-91.66 0-4.751-4.879-1.091-79.465-14.893-92.43-1.734-0.707-3.273-1.411-4.428-2.118-19.513-5.199-37.935-12.967-55.010-22.85-19.449 0.515-70.351 57.448-76.833 57.384-7.125-0.192-64.829-57.512-64.829-64.893s66.755-66.947 53.148-80.557c0.579 0.064 1.027 0.128 1.475 0.192-9.243-16.432-16.688-34.019-21.759-52.633-16.624-12.132-89.349-8.28-93.714-12.839-5.007-5.135-5.135-86.396 0-91.66 4.879-4.943 82.611-0.835 93.265-15.789 5.842-22.146 14.957-42.878 26.766-61.94-7.573-21.951-56.421-65.984-56.293-72.018 0.064-7.189 57.512-64.829 64.765-64.829 7.381 0 67.011 66.691 80.621 53.148 0 0.064 0 0.128 0 0.192 17.523-9.371 36.395-16.496 56.293-21.119 9.371-22.21 6.29-85.369 10.462-89.541 5.199-4.943 86.46-5.135 91.724 0.064 4.751 4.815 0.963 80.685 15.213 92.687 19.129 5.65 37.1 13.671 53.789 23.685 21.951-7.704 65.92-56.421 72.018-56.293 7.125 0.128 64.765 57.448 64.765 64.829 0 6.61-53.34 55.010-54.751 74.843 10.654 18.422 19.001 38.449 24.264 59.566 20.156 10.462 87.103 7.061 91.403 11.489 5.007 5.135 5.135 86.46-0.128 91.66-4.751 4.879-82.224 0.899-93.073 15.725zM705.874 47.416c-80.877 0-146.477 65.536-146.477 146.605 0 80.941 65.6 146.541 146.477 146.541 81.005 0 146.605-65.6 146.605-146.541 0-81.005-65.6-146.605-146.605-146.605zM788.099 192.93c0-44.347-35.951-80.298-80.298-80.298s-80.298 35.951-80.298 80.298c0 44.347 35.951 80.298 80.298 80.298s80.298-35.951 80.298-80.298z" />
<glyph unicode="&#xe945;" glyph-name="tutorial-icon-comment" d="M843.612 837.761h-733.576c-60.739 0-110.035-49.223-110.035-110.035v-586.861c0-60.812 49.296-110.035 110.035-110.035h183.394v-73.358h73.358v-73.358h73.358v-73.358h73.358v73.358h73.358v73.358h73.358v73.358h183.394c60.739 0 110.035 49.223 110.035 110.035v586.861c0 60.812-49.296 110.035-110.035 110.035zM586.861 250.901h-366.787v73.358h366.787v-73.358zM733.502 397.617h-513.429v73.358h513.429v-73.358zM733.502 544.332h-513.429v73.358h513.429v-73.358z" />
<glyph unicode="&#xe946;" glyph-name="ep-icon-attach-file" d="M911.909 461.218l-482.179-467.068c-0.734-0.734-1.393-1.32-2.127-1.981-68.955-65.655-178.699-67.048-245.16-2.493-70.717 66.169-72.183 161.9 1.1 235.552 0.515 0.588 1.1 1.32 1.542 1.688 0.734 0.734 1.393 1.466 1.981 1.981l458.191 443.813c41.961 39.76 108.496 40.568 148.915 1.393 24.355-34.406 39.76-103.873-1.32-144.148l-3.815-3.669-42.988-41.595-39.319-38.292-208.042-201.366c0 0-167.622-159.919-167.77-160.066-15.259-13.79-38.953-13.866-53.404 0.146-14.378 13.939-14.378 34.406 0 49.515 0.439 0.439 143.927 139.599 143.927 139.599l203.715 197.258-41.814 40.272-304.801-295.191-37.045-40.272c-0.073-0.146-0.146-0.293-0.366-0.293-0.293-0.366-0.588-0.661-1.027-1.1-38.072-37.853-43.28-92.798-5.796-129.183 37.56-36.46 99.107-33.598 138.133 3.3l0.808 0.808c0 0.146 0.146 0.146 0.146 0.293 0 0 0.073 0.146 0.146 0.293l169.676 161.46 155.151 145.175 135.052 130.502c64.262 61.987 66.316 163.735 4.696 226.968l-1.615 1.835c-61.766 63.235-163.808 64.189-228.142 2.054l-204.447-197.918c-1.466-1.393-2.42-3.081-3.815-4.547l-254.697-246.555c-0.219-0.293-0.661-0.588-1.173-1.027-0.588-0.588-1.1-1.246-1.835-1.981l-0.588-0.588c-90.083-89.864-91.549-231.371-2.42-317.712 90.010-87.149 238.119-84.948 330.916 4.769 0.366 0.439 0.588 0.734 1.1 1.173l482.252 466.774-41.741 40.419z" />
<glyph unicode="&#xe947;" glyph-name="tutorial-icon-comment-alt" d="M843.612 837.761h-733.576c-60.739 0-110.035-49.223-110.035-110.035v-586.861c0-60.812 49.296-110.035 110.035-110.035h256.751l-73.358 73.358h-219.999v660.218h806.932v-660.218h-220.147l-183.394-183.394-110.035 110.035h-73.358v-73.358h73.358v-73.358h73.432v-73.358h73.358v73.358h73.284v73.358h73.358v73.358h183.394c60.739 0 110.035 49.223 110.035 110.035v586.861c0 60.812-49.296 110.035-110.035 110.035zM220.073 617.687h513.577v-73.358h-513.577v73.358zM220.073 470.973h513.577v-73.358h-513.577v73.358zM220.073 324.258h366.787v-73.358h-366.787v73.358z" />
<glyph unicode="&#xe948;" glyph-name="tutorial-icon-play" d="M513.502 837.761c-283.673 0-513.502-229.903-513.502-513.502s229.903-513.502 513.502-513.502c283.6 0 513.502 229.903 513.502 513.502s-229.976 513.502-513.502 513.502zM513.502-115.887c-243.033 0-440.145 197.111-440.145 440.145s197.111 440.145 440.145 440.145c243.033 0 440.145-197.111 440.145-440.145s-197.111-440.145-440.145-440.145zM366.787 30.828l440.145 293.43-440.145 293.43z" />
<glyph unicode="&#xe949;" glyph-name="tutorial-icon-list" d="M73.358 691.046h146.715v-146.715h-146.715v146.715zM366.787 691.046h586.861v-146.715h-586.861v146.715zM73.358 397.617h146.715v-146.715h-146.715v146.715zM366.787 397.617h586.861v-146.715h-586.861v146.715zM73.358 104.185h146.715v-146.715h-146.715v146.715zM366.787 104.185h586.861v-146.715h-586.861v146.715z" />
<glyph unicode="&#xe94a;" glyph-name="tutorial-icon-power" d="M660.218 702.124v-120.305c108.35-54.138 183.394-164.908 183.394-294.237 0-182.294-147.888-330.109-330.109-330.109-182.367 0-330.109 147.815-330.109 330.109 0 129.329 75.044 240.099 183.394 294.31v120.305c-170.851-60.52-293.43-223.080-293.43-414.617 0-243.033 197.111-440.145 440.145-440.145 242.96 0 440.145 197.111 440.145 440.145 0 191.537-122.655 354.023-293.43 414.543zM513.502 287.58c40.568 0 73.358 28.095 73.358 62.793v387.914c0 34.699-32.791 62.793-73.358 62.793-40.494 0-73.358-28.095-73.358-62.793v-387.841c0-34.772 32.864-62.866 73.358-62.866z" />
<glyph unicode="&#xe94b;" glyph-name="icon-old-phone" d="M887.114 208.253c-4.943 34.343-31.461 61.118-65.598 69.097-132.687 31.099-165.951 107.51-171.562 192.261-23.53 4.376-65.392 9.114-136.446 9.114s-112.916-4.738-136.446-9.114c-5.611-84.752-38.875-161.161-171.562-192.261-34.137-8.033-60.654-34.756-65.598-69.097l-25.59-177.226c-9.011-62.405 36.815-118.683 100.559-118.683h597.281c63.691 0 109.57 56.278 100.559 118.683l-25.59 177.226zM513.502 41.475c-71.827 0-130.062 57.667-130.062 128.723s58.235 128.723 130.062 128.723 130.062-57.667 130.062-128.723-58.286-128.723-130.062-128.723zM1025.828 530.215c-1.235 77.233-197.821 205.906-512.324 205.957-314.554-0.051-511.14-128.723-512.324-205.957s1.081-177.74 130.524-161.006c151.431 19.617 142.111 72.498 142.111 148.083 0 52.724 123.161 65.443 239.683 65.443s239.632-12.716 239.683-65.443c0-75.587-9.319-128.465 142.111-148.083 129.392-16.733 131.709 83.773 130.524 161.006z" />
<glyph unicode="&#xe94c;" glyph-name="qm-icon-administrator" d="M821.541 439.797h-51.286v128.375c0 141.79-114.96 256.751-256.751 256.751s-256.751-114.96-256.751-256.751v-128.375h-51.414c-42.491 0-76.961-34.47-76.961-77.089v-487.699c0-42.491 34.47-77.089 76.961-77.089h616.204c42.622 0 77.089 34.598 77.089 77.089v487.699c0 42.622-34.47 77.089-77.089 77.089zM320.939 568.172c0 106.36 86.204 192.564 192.564 192.564 106.424 0 192.564-86.204 192.564-192.564v-128.375h-385.127v128.375zM834.442-137.766h-641.879v513.31h641.879v-513.31zM577.691 183.045c0-35.451-28.738-64.189-64.189-64.189s-64.189 28.738-64.189 64.189c0 35.451 28.738 64.189 64.189 64.189s64.189-28.738 64.189-64.189z" />
<glyph unicode="&#xe94d;" glyph-name="font-icon-pin2" d="M739.316 745.395c-20.284 20.412-53.148 20.476-73.624 0.192-5.455-5.391-9.243-11.812-11.745-18.422-43.326-90.44-91.019-141.47-151.291-171.574-67.526-33.314-145.129-56.485-270.103-56.485-6.741 0-13.479-1.347-19.897-3.98-12.772-5.263-22.85-15.469-28.178-28.178-5.263-12.708-5.263-27.086 0-39.797 2.697-6.418 6.482-12.196 11.297-17.011l168.879-168.815-236.276-315.162 315.098 236.34 168.879-168.943c4.815-4.879 10.59-8.6 17.011-11.297 6.418-2.633 13.095-4.044 19.961-4.044 6.677 0 13.543 1.411 19.833 4.044 12.772 5.327 22.914 15.341 28.178 28.178 2.761 6.354 4.044 13.095 4.044 19.833 0 125.038 23.043 202.513 56.421 269.076 30.103 60.209 81.005 107.963 171.509 151.291 6.677 2.569 13.095 6.29 18.486 11.681 20.22 20.412 20.092 53.404-0.192 73.624l-208.289 209.445z" />
<glyph unicode="&#xe94e;" glyph-name="font-icon-pin" d="M277.035 346.98l-137.49-139.865c-6.933-6.677-11.169-16.24-11.169-26.702 0-20.604 16.496-37.487 36.78-37.487h260.474v-234.029c0-25.867 20.86-46.794 46.471-46.794 25.675 0 46.407 20.924 46.407 46.794v234.029h279.089c20.284 0 36.844 16.88 36.844 37.487 0 10.27-4.108 19.641-10.849 26.318l-137.811 140.443v319.976h27.921c25.611 0 46.407 20.988 46.407 46.794-0.064 25.803-20.796 46.794-46.471 46.794h-464.464c-25.675 0-46.471-20.988-46.471-46.794 0-25.867 20.86-46.794 46.471-46.794h27.857v-320.169z" />
<glyph unicode="&#xe94f;" glyph-name="font-icon-replay" d="M476.825-128.724c263.354 0 476.825 213.617 476.825 476.898s-213.47 476.751-476.825 476.751c-150.603 0-283.38-70.717-370.676-179.652l-106.149 106.223v-293.43h293.43l-135.271 135.198c73.725 95.805 188.456 158.305 318.666 158.305 222.86 0 403.467-180.679 403.467-403.394 0-222.787-180.606-403.394-403.467-403.394-184.567 0-339.866 124.048-387.841 293.283h-75.632c49.515-210.096 238.119-366.787 463.474-366.787z" />
<glyph unicode="&#xe950;" glyph-name="font-icon-mypage-arrow-left" horiz-adv-x="1320" d="M513.502-79.869l-410.875 391.289 410.875 391.216-51.423 48.93-462.079-440.145 462.079-440.145zM73.358 348.099h1247.079v-73.358h-1247.079v73.358z" />
<glyph unicode="&#xe951;" glyph-name="icon-attach-personal" d="M0-202.082h86.697c39.626 195.131 212.077 342.164 418.933 342.335 0.171 0 0.341 0 0.427 0s0.256 0 0.427 0c206.771-0.171 379.307-147.204 418.933-342.335h86.783c-30.725 182.037-157.217 331.381-325.818 394.712 96.881 60.422 162.010 167.23 162.010 289.958 0 189.054-153.281 342.335-342.335 342.335s-342.335-153.281-342.335-342.335c0-122.728 65.13-229.536 162.095-289.958-168.771-63.333-295.179-212.675-325.818-394.712zM249.305 482.59c0 141.811 115.024 256.751 256.751 256.751s256.751-114.939 256.751-256.751-115.024-256.751-256.751-256.751c-141.811 0-256.751 114.939-256.751 256.751z" />
<glyph unicode="&#xe952;" glyph-name="icon-attach-article" d="M85.583 824.924v-1027.006h855.838v1027.006h-855.838zM855.838-116.499h-684.671v855.838h684.671v-855.838zM342.335 568.172h342.335v-85.583h-342.335v85.583zM342.335 397.004h342.335v-85.583h-342.335v85.583zM342.335 225.837h256.751v-85.583h-256.751v85.583z" />
<glyph unicode="&#xe953;" glyph-name="icon-attach-movie" d="M513.502 824.924c-283.625 0-513.502-229.964-513.502-513.502 0-283.625 229.964-513.502 513.502-513.502s513.502 229.877 513.502 513.502c0 283.539-229.964 513.502-513.502 513.502zM513.502-116.499c-236.383 0-427.919 191.537-427.919 427.919 0 236.297 191.537 427.919 427.919 427.919 236.211 0 427.919-191.622 427.919-427.919 0-236.383-191.708-427.919-427.919-427.919zM342.335 54.67l427.833 256.751-427.833 256.751z" />
<glyph unicode="&#xe954;" glyph-name="sort-arrow3" d="M514.004 811.873l-367.146-440.575h734.293l-367.146 440.575zM304.071 444.728l210.522 252.009 210.448-252.009h-420.97zM514.004-216.137l367.146 440.575h-734.293l367.146-440.575z" />
<glyph unicode="&#xe955;" glyph-name="sort-arrow2" d="M514.004 811.873l-367.146-440.575h734.293l-367.146 440.575zM881.151 224.438h-734.293l367.146-440.575 367.146 440.575zM513.417-101l-210.448 252.009h420.97l-210.522-252.009z" />
<glyph unicode="&#xe956;" glyph-name="sort-arrow1" d="M514.004 811.873l-367.146-440.575h734.293l-367.146 440.575zM304.071 444.728l210.522 252.009 210.448-252.009h-420.97zM881.151 224.438h-734.293l367.146-440.575 367.146 440.575zM513.417-101l-210.448 252.009h420.97l-210.522-252.009z" />
<glyph unicode="&#xe957;" glyph-name="icon-attach-images-file-box" d="M1027.006 653.756h-1027.006v-855.924h1027.006v855.924zM85.583-116.584v684.756h855.924v-684.756h-855.924zM513.502 825.009h-513.502v-256.751h599.086l-85.583 256.751zM427.919 653.843h-342.335v85.583h351.664l24.048-85.583h-33.379zM427.919 397.004c0-47.266-38.316-85.583-85.583-85.583s-85.583 38.316-85.583 85.583c0 47.266 38.316 85.583 85.583 85.583s85.583-38.316 85.583-85.583zM647.442 397.004l-181.78-354.317-118.876 183.15-175.618-256.751h684.671z" />
<glyph unicode="&#xe958;" glyph-name="icon-attach-prospect" d="M85.583 824.924v-1027.091h855.838v1027.091h-855.838zM855.838-116.584h-684.671v855.924h684.671v-855.924zM703.157 482.59l-245.112-221.235-134.196 121.015-67.097-60.337 201.293-181.78 312.21 281.742z" />
<glyph unicode="&#xe959;" glyph-name="icon-attach-chit" d="M85.583 824.924v-1027.091h855.838v1027.091h-855.838zM855.838-116.584h-684.671v855.924h684.671v-855.924zM513.502 396.834h-256.751v-427.833h513.502v427.833h-256.751zM340.794 312.019h87.124v-86.353h-87.124v86.353zM340.794 55.183v84.9h87.124v-84.9h-87.124zM683.13 55.183h-169.627v84.9h169.627v-84.9zM513.502 225.666v86.353h169.627v-86.353h-169.627zM342.335 570.311h342.335v-85.583h-342.335v85.583z" />
<glyph unicode="&#xe95a;" glyph-name="icon-attach-menu-open" d="M962.817 54.605h-64.189v64.189l-128.375 0.064v-64.189h64.189v-64.189h-385.127v-64.189h385.127v-64.189h-64.189v-64.189h128.375v64.189h64.189v64.189h64.189v64.189h-64.189zM513.502 311.421h-449.315v449.315h449.315v64.189h-513.502v-577.691h513.502zM641.879 760.736v64.189h-64.189v-64.189h32.093zM770.254 760.736v64.189h-64.189v-64.189h32.093zM641.879 247.233v64.189h-64.189v-64.189h32.093zM770.254 247.233v64.189h-64.189v-64.189h32.093zM994.913 824.924h-32.093v-64.189h64.189v64.189zM962.817 311.421v-64.189h64.189v64.189h-32.093zM962.817 568.172v-64.189h64.189v64.189h-32.093zM962.817 696.547v-64.189h64.189v64.189h-32.093zM898.631 760.736v64.189h-64.189v-64.189h32.093zM898.631 247.233v64.189h-64.189v-64.189h32.093zM641.879 632.361v64.189h-64.189v-64.189h32.093zM641.879 503.983v64.189h-64.189v-64.189h32.093zM962.817 439.797v-64.189h64.189v64.189h-32.093zM641.879 375.608v64.189h-64.189v-64.189h32.093z" />
<glyph unicode="&#xe95b;" glyph-name="icon-attach-menu-close" d="M641.879 54.67h64.189v64.189h-128.375v-64.189h-64.189v-64.189h-64.189v-64.189h64.189v-64.124h64.189v-64.189l128.375-0.064v64.189h-64.189v64.189h385.127v64.189h-385.127zM513.502 311.421h-449.315v449.315h449.315v64.189h-513.502v-577.691h513.502zM641.879 760.736v64.189h-64.189v-64.189h32.093zM770.254 760.736v64.189h-64.189v-64.189h32.093zM641.879 247.233v64.189h-64.189v-64.189h32.093zM770.254 247.233v64.189h-64.189v-64.189h32.093zM994.913 824.924h-32.093v-64.189h64.189v64.189zM962.817 311.421v-64.189h64.189v64.189h-32.093zM962.817 568.172v-64.189h64.189v64.189h-32.093zM962.817 696.547v-64.189h64.189v64.189h-32.093zM898.631 760.736v64.189h-64.189v-64.189h32.093zM898.631 247.233v64.189h-64.189v-64.189h32.093zM641.879 632.361v64.189h-64.189v-64.189h32.093zM641.879 503.983v64.189h-64.189v-64.189h32.093zM962.817 439.797v-64.189h64.189v64.189h-32.093zM641.879 375.608v64.189h-64.189v-64.189h32.093z" />
<glyph unicode="&#xe95c;" glyph-name="arrow_2left_alt" d="M503.49 109.165l-182.294 206.107 182.294 206.107c13.543 13.415 13.543 35.497 0 48.912-13.479 13.479-35.433 13.479-48.912 0l-203.604-230.242c-6.869-6.741-10.142-15.853-10.014-24.776-0.128-9.115 3.145-18.23 10.014-24.968l203.604-230.178c13.479-13.479 35.433-13.479 48.912 0 13.543 13.479 13.543 35.497 0 49.040zM750.228 109.165l-182.294 206.107 182.294 206.107c13.543 13.543 13.543 35.561 0 49.040-13.415 13.415-35.497 13.415-48.912 0l-203.604-230.242c-6.933-6.805-10.142-15.853-10.014-24.904-0.128-9.051 3.081-18.102 10.014-24.904l203.604-230.178c13.415-13.479 35.497-13.479 48.912 0 13.479 13.479 13.351 35.433 0 48.976zM1027.006 311.421c0 283.582-229.921 513.502-513.502 513.502s-513.502-229.921-513.502-513.502 229.921-513.502 513.502-513.502 513.502 229.921 513.502 513.502zM68.809 311.421c0 245.133 199.496 444.757 444.693 444.757s444.822-199.496 444.822-444.757c0-245.133-199.561-444.757-444.822-444.757-245.069 0-444.693 199.625-444.693 444.757z" />
<glyph unicode="&#xe95d;" glyph-name="messenger-icon-chat-enter2" d="M128.375 696.547h770.254v-128.375h-770.254v128.375zM320.939 503.983h577.691v-128.375h-577.691v128.375zM128.375 503.983h64.189v-449.315h-64.189v449.315zM128.375 118.857h320.939v-64.189h-320.939v64.189zM577.562 118.857h-64.124v64.189h-64.124v64.124h-64.124v-320.875h64.124v64.189h64.124v64.189h64.124z" />
<glyph unicode="&#xe95e;" glyph-name="arrow_2right_alt" d="M523.516 513.741l182.294-206.107-182.294-206.107c-13.543-13.543-13.543-35.561 0-48.976 13.479-13.479 35.433-13.479 48.912 0l203.604 230.114c6.869 6.805 10.142 15.92 10.014 24.968 0.128 9.051-3.145 18.038-10.014 24.904l-203.604 230.178c-13.479 13.479-35.433 13.479-48.912 0-13.543-13.479-13.543-35.561 0-48.976zM276.842 513.741l182.422-206.107-182.422-206.107c-13.415-13.543-13.415-35.625 0-49.104 13.543-13.415 35.561-13.415 48.976 0l203.604 230.178c6.805 6.805 10.078 15.853 9.95 24.904 0.128 9.115-3.145 18.166-9.95 24.968l-203.669 230.178c-13.415 13.479-35.433 13.479-48.976 0-13.351-13.479-13.351-35.497 0.064-48.912zM0 311.421c0-283.582 229.921-513.502 513.502-513.502s513.502 229.921 513.502 513.502-229.921 513.502-513.502 513.502-513.502-229.921-513.502-513.502zM958.197 311.421c0-245.197-199.432-444.822-444.693-444.822s-444.822 199.625-444.822 444.822c0 245.069 199.625 444.693 444.822 444.693 245.069 0 444.693-199.625 444.693-444.693z" />
<glyph unicode="&#xe95f;" glyph-name="arrow_left_alt" d="M349.503 333.565c-6.677-6.741-9.95-15.533-9.95-24.392s3.273-17.587 9.95-24.392l223.053-223.053c13.415-13.415 35.238-13.415 48.654 0s13.415 35.238 0 48.589l-198.79 198.854 198.79 198.918c13.415 13.415 13.415 35.238 0 48.525-13.415 13.415-35.238 13.415-48.654 0l-223.053-223.053zM0 311.421c0-283.646 229.921-513.568 513.502-513.568s513.502 229.985 513.502 513.568c0 283.518-229.921 513.502-513.502 513.502s-513.502-229.985-513.502-513.502zM958.197 311.421c0-245.262-199.432-444.886-444.693-444.886s-444.822 199.625-444.822 444.886c0 245.133 199.625 444.757 444.822 444.757 245.069 0 444.693-199.625 444.693-444.757z" />
<glyph unicode="&#xe960;" glyph-name="arrow_right_alt" d="M677.503 289.212c6.677 6.677 9.95 15.533 9.95 24.392s-3.273 17.587-9.95 24.392l-223.053 223.053c-13.415 13.415-35.238 13.415-48.654 0s-13.415-35.238 0-48.589l198.79-198.854-198.79-198.918c-13.415-13.415-13.415-35.238 0-48.525 13.415-13.415 35.238-13.415 48.654 0l223.053 223.053zM1027.006 311.357c0 283.582-229.921 513.568-513.568 513.568-283.518 0-513.438-229.985-513.438-513.568 0-283.518 229.921-513.502 513.502-513.502s513.502 229.921 513.502 513.502zM68.809 311.357c0 245.262 199.496 444.886 444.693 444.886s444.822-199.561 444.822-444.886c0-245.133-199.561-444.757-444.822-444.757-245.069 0-444.693 199.625-444.693 444.757z" />
<glyph unicode="&#xe961;" glyph-name="messenger-icon-notifications-target" d="M417.221-137.894c88.708 0 160.47 57.448 160.47 128.375h-320.939c0-70.927 71.954-128.375 160.47-128.375zM898.631 386.329v29.012c0 26.446-6.677 47.050-20.284 61.812-15.984 17.843-41.787 26.83-77.281 26.83-36.009 0-61.364-10.977-76.577-33.056-12.26-17.843-18.422-45.188-18.422-82.096v-89.928c0-39.218 6.162-67.526 18.422-84.6 14.893-20.732 41.4-31.259 79.143-31.259 36.137 0 61.556 10.526 76.769 31.453 12.068 16.688 18.23 42.043 18.23 75.486v12.26h-50.579v-28.308c0-16.688-4.108-29.719-12.068-38.834s-18.934-13.543-33.056-13.543c-14.314 0-25.483 4.623-34.211 13.799-7.896 9.179-12.068 21.055-12.068 35.881v142.561c0 15.661 4.108 27.857 12.068 36.652 8.28 8.472 19.577 12.708 34.211 12.708 15.021 0 26.638-3.916 34.598-11.425 7.061-6.677 10.526-15.149 10.526-25.803v-39.669h50.579zM575.444 329.073c-5.519 2.374-14.57 3.66-26.702 3.98-7.768 0.643-23.237 0.899-46.151 0.899h-1.99v-109.184l13.799 0.32c19.449 0 32.544 0.32 39.605 0.707 10.014 0.899 17.651 2.438 22.53 4.815 5.327 2.502 9.051 6.482 10.913 12.324 1.926 4.687 3.017 12.516 3.017 23.173v30.167c0 10.014-1.091 17.075-3.017 21.695-2.246 5.327-6.226 9.115-12.004 11.105zM539.82 372.591c10.913 0 19.129 0.771 24.2 1.99 5.906 1.155 10.654 3.529 13.287 6.869 2.502 3.401 4.428 8.795 5.327 15.789 0.707 5.65 1.347 15.213 1.475 28.5 0 10.334-0.963 17.843-2.953 22.594-1.926 5.327-5.391 9.371-10.398 11.681-5.071 2.31-13.287 3.724-23.429 4.492-7.189 0.448-20.796 0.707-40.632 0.707h-6.098v-93.457c4.751 0.515 10.142 0.771 15.533 0.771 4.044 0.064 11.94 0.064 23.685 0.064zM264.518 309.11h48.525l-23.941 137.618zM688.736 193.572v219.522c0 106.872-80.298 196.222-189.996 226.84v39.282c0 45.060-36.524 81.519-81.519 81.519s-81.519-36.46-81.519-81.519v-39.282c-109.825-30.618-189.996-119.967-189.996-226.84v-219.522l-81.519-90.762v-48.141h706.067v48.141l-81.519 90.762zM336.73 182.981l-15.405 82.224h-65.086l-15.021-82.224h-48.654l60.273 321.003h71.826l60.465-321.003h-48.397zM641.879 258.016c0-31.002-6.29-51.414-19.001-61.364-11.489-9.115-34.211-13.671-68.425-13.671h-105.14v321.003h102.892c33.056 0 55.266-4.492 66.883-13.351 10.913-8.795 16.304-25.675 16.304-50.773v-26.958c0-18.742-2.889-31.837-8.408-39.090-5.583-7.381-17.075-13.287-34.662-17.331 18.87-4.236 32.029-11.681 39.026-21.951 6.997-9.371 10.526-24.904 10.526-46.343v-30.167z" />
<glyph unicode="&#xe962;" glyph-name="calendar" d="M962.817 824.924h-898.631c-35.497 0-64.189-28.756-64.189-64.189v-898.631c0-35.497 28.692-64.189 64.189-64.189h898.631c35.497 0 64.189 28.692 64.189 64.189v898.631c0 35.433-28.692 64.189-64.189 64.189zM962.817-137.894h-898.631v705.938h898.631v-705.938zM449.443 375.352h128.375v-128.375h-128.375v128.375zM642.264 182.788h128.375v-128.503h-128.375v128.503zM642.264 375.352h128.375v-128.375h-128.375v128.375zM256.88 182.788h128.375v-128.503h-128.375v128.503zM256.88 375.352h128.375v-128.375h-128.375v128.375zM449.443 182.788h128.375v-128.503h-128.375v128.503z" />
<glyph unicode="&#xe963;" glyph-name="close" d="M898.567-18.633l-330.118 330.118 330.118 330.054-55.010 55.010-330.118-330.054-330.054 330.054-55.010-54.946 330.118-330.118-330.118-330.118 55.010-55.010 330.118 330.118 330.054-329.99z" />
<glyph unicode="&#xe964;" glyph-name="plus" d="M962.881 375.544h-385.127v385.191h-128.375v-385.191h-385.191v-128.375h385.191v-385.127h128.375v385.127h385.127z" />
<glyph unicode="&#xe965;" glyph-name="plus-alt" d="M481.409 824.924c-265.93 0-481.409-215.542-481.409-481.409s215.478-481.409 481.409-481.409c265.866 0 481.409 215.542 481.409 481.409s-215.542 481.409-481.409 481.409zM770.254 311.292h-256.687v-256.751h-64.189v256.751h-256.816v64.189h256.816v256.751h64.189v-256.751h256.687v-64.189z" />
<glyph unicode="&#xe966;" glyph-name="search" d="M945.745-39.43l-285.315 285.251c43.713 60.209 69.708 133.961 69.708 213.939 0 201.743-163.358 365.165-365.036 365.165s-365.101-163.422-365.101-365.101 163.486-365.101 365.101-365.101c79.978 0 153.73 25.995 213.81 69.644l285.379-285.379c22.722-22.594 59.054-22.594 81.584 0s22.594 59.054-0.128 81.584zM365.101 207.051c-139.544 0-252.772 113.292-252.772 252.772 0 139.608 113.227 252.708 252.772 252.708 139.608 0 252.772-113.098 252.772-252.708-0.064-139.48-113.421-252.772-252.772-252.772z" />
<glyph unicode="&#xe967;" glyph-name="title-file" d="M660.365 824.924h-2.493l2.493-2.569zM877.944 604.851l-220.073 220.073h-511.082v-1027.006h733.649v804.44l-2.493 2.493zM766.66 604.851h-106.296v106.223l106.296-106.223zM807.080-128.724h-586.934v880.291h366.787v-220.073h219.999l0.146-660.218zM293.577 384.778h440.218v-73.358h-440.218v73.358zM293.577 237.99h440.218v-73.358h-440.218v73.358zM293.577 91.201h440.218v-73.358h-440.218v73.358z" />
<glyph unicode="&#xe968;" glyph-name="font-icon-information" d="M586.934 531.493c0-40.515-32.843-73.358-73.358-73.358s-73.358 32.843-73.358 73.358c0 40.515 32.843 73.358 73.358 73.358s73.358-32.843 73.358-73.358zM660.218 17.991h-293.356v73.358h73.358v219.926h-73.358v73.358l73.358 0.146 146.715-0.146v-293.283h73.284z" />
<glyph unicode="&#xe969;" glyph-name="font-icon-edit" d="M73.358 54.302v-183.027h183.027l520.839 520.839-182.953 183.027-520.912-520.839zM939.123 553.428c19.44 19.367 19.44 49.884 0 69.25l-114.292 114.365c-19.44 19.367-49.957 19.367-69.324 0l-95.511-96.172 182.953-183.027 96.172 95.584z" />
<glyph unicode="&#xe96a;" glyph-name="font-icon-edit-plus" d="M0 127.733v-183.027h183.027l520.766 520.839-182.953 182.953-520.839-520.766zM865.693 626.857c19.44 19.367 19.44 49.884 0 69.25l-114.292 114.365c-19.44 19.367-49.957 19.367-69.324 0l-95.511-96.172 182.953-183.027 96.172 95.584zM733.576 311.421h73.358v-513.502h-73.358v513.502zM513.502 91.347h513.502v-73.358h-513.502v73.358z" />
<glyph unicode="&#xe96b;" glyph-name="messenger-icon-chat-enter" d="M513.502 824.924v0c-0.455 0-0.799-0.228-1.141-0.228-6.791-0.114-13.465-1.311-19.911-3.994-8.444-3.365-15.576-8.845-21.51-15.689l-340.852-342.906c-21.339-21.396-21.339-56.087 0-77.54 21.283-21.396 55.857-21.396 76.968 0l249.333 250.932v-780.524c0-31.553 25.561-57.057 57.114-57.057s57.057 25.504 57.057 57.057v780.41l249.277-250.818c21.396-21.339 55.799-21.339 77.139 0 21.283 21.567 21.226 56.144 0 77.597l-340.909 342.678c-5.878 6.905-13.067 12.495-21.738 15.92-6.677 2.74-13.692 4.165-20.824 4.165v0z" />
<glyph unicode="&#xe96c;" glyph-name="fapiao-sign-up" d="M0 26.272v-74.356h718.904v74.356c0 152.202-238.728 233.746-359.452 233.746-120.776 0-359.452-81.545-359.452-233.746zM513.502 516.822c0 84.214-69.631 154.050-154.050 154.050-84.112 0-154.050-69.836-154.050-154.050 0-84.112 69.938-154.050 154.050-154.050 84.419 0 154.050 69.887 154.050 154.050zM1027.006 455.202h-164.218v164.32h-82.16v-164.32h-164.423v-82.109h164.423v-164.372h82.16v164.372h164.218z" />
<glyph unicode="&#xe96d;" glyph-name="icon_face_happy" d="M513.502 824.924c-283.6 0-513.502-229.903-513.502-513.502 0-283.673 229.903-513.502 513.502-513.502 283.528 0 513.429 229.829 513.429 513.502 0 283.6-229.903 513.502-513.429 513.502zM513.502-137.894c-248.095 0-449.315 201.145-449.315 449.315s201.22 449.315 449.315 449.315c248.095 0 449.243-201.145 449.243-449.315s-201.145-449.315-449.243-449.315zM417.258 471.854c0-35.452-28.737-64.189-64.189-64.189s-64.189 28.737-64.189 64.189c0 35.452 28.737 64.189 64.189 64.189s64.189-28.737 64.189-64.189zM738.124 471.854c0-35.452-28.737-64.189-64.189-64.189s-64.189 28.737-64.189 64.189c0 35.452 28.737 64.189 64.189 64.189s64.189-28.737 64.189-64.189zM738.124 311.421c0-124.048-100.573-224.694-224.621-224.694s-224.621 100.647-224.621 224.694h-64.189c0-159.627 129.329-288.882 288.809-288.882s288.809 129.256 288.809 288.882h-64.189z" />
<glyph unicode="&#xe96e;" glyph-name="icon_face_sad" d="M513.502 824.924c-283.6 0-513.502-229.903-513.502-513.502 0-283.673 229.903-513.502 513.502-513.502 283.528 0 513.429 229.829 513.429 513.502 0 283.6-229.903 513.502-513.429 513.502zM513.502-137.894c-248.095 0-449.315 201.145-449.315 449.315s201.22 449.315 449.315 449.315c248.095 0 449.243-201.145 449.243-449.315s-201.145-449.315-449.243-449.315zM417.258 471.854c0-35.452-28.737-64.189-64.189-64.189s-64.189 28.737-64.189 64.189c0 35.452 28.737 64.189 64.189 64.189s64.189-28.737 64.189-64.189zM738.124 471.854c0-35.452-28.737-64.189-64.189-64.189s-64.189 28.737-64.189 64.189c0 35.452 28.737 64.189 64.189 64.189s64.189-28.737 64.189-64.189zM288.882 22.539c0 124.048 100.573 224.694 224.621 224.694 123.974 0 224.621-100.573 224.621-224.694h64.189c0 159.627-129.329 288.882-288.809 288.882s-288.809-129.256-288.809-288.882h64.189z" />
<glyph unicode="&#xe96f;" glyph-name="icon_bookmark" d="M749.886 824.924h-529.82c-58.255 0-105.44-51.35-105.44-114.111l-0.515-912.894 370.863 215.044 370.863-215.044v912.894c-0.057 62.761-47.699 114.111-105.952 114.111z" />
<glyph unicode="&#xe970;" glyph-name="notification-send-check-circle" d="M512.745 773.837c-247.908 0-448.684-200.776-448.684-448.812 0-247.78 200.776-448.94 448.684-448.94 248.036 0 449.197 201.16 449.197 448.94 0 248.036-201.16 448.812-449.197 448.812zM728.847 431.344l-239.508-256.436c-5.9-6.412-13.98-10.004-22.508-10.26-0.256 0-0.642 0-0.898 0-8.272 0-16.16 3.27-22.188 8.914l-145.372 139.344c-12.76 12.248-13.146 32.576-0.834 45.4s32.448 13.146 45.272 0.962l121.902-116.772 217.32 232.646c12.056 12.89 32.448 13.594 45.208 1.54 13.018-12.12 13.658-32.384 1.604-45.336z" />
<glyph unicode="&#xe971;" glyph-name="notification-send-setting-circle" d="M513.066 773.837c-248.036 0-448.94-200.84-448.94-448.94 0-247.716 200.904-448.812 448.94-448.812 247.908 0 448.812 201.096 448.812 448.812 0 248.1-200.904 448.94-448.812 448.94zM800.218 240.764h-30.844c-4.040-12.248-9.106-24.368-14.942-36.102l22.188-22.188c12.504-12.504 12.504-32.832 0-45.336l-74.322-74.386c-12.504-12.504-32.832-12.504-45.336 0l-22.060 22.060c-11.992-6.092-24.24-11.222-36.744-15.39v-31.164c0-17.698-14.364-32.062-32.062-32.062l-105.166-0.064c-8.528 0-16.672 3.398-22.7 9.362s-9.362 14.172-9.362 22.7v31.358c-12.504 4.104-24.752 9.298-36.552 15.198l-22.188-22.252c-6.028-6.092-14.236-9.426-22.7-9.426s-16.672 3.398-22.7 9.362l-74.386 74.386c-6.028 6.028-9.362 14.172-9.362 22.7s3.398 16.736 9.426 22.7l22.444 22.38c-6.092 11.8-11.094 23.854-15.198 36.166h-31.806c-17.698 0-32.062 14.364-32.062 32.062v105.102c0 17.762 14.364 32.062 32.062 32.062h31.806c4.168 12.44 9.234 24.56 15.198 36.359l-22.444 22.444c-5.964 5.964-9.362 14.108-9.362 22.636s3.398 16.672 9.362 22.7l74.322 74.386c12.568 12.504 32.832 12.44 45.336 0l22.636-22.636c11.67 5.9 23.598 10.902 35.974 15.006l-0.064 31.55c0 8.528 3.398 16.672 9.362 22.7s14.172 9.362 22.7 9.362l105.166 0.128c8.528 0 16.672-3.398 22.7-9.362s9.362-14.172 9.362-22.7v-31.422c12.376-4.104 24.432-9.106 36.294-15.070l22.060 22.124c12.504 12.504 32.832 12.44 45.336 0l74.386-74.257c6.028-6.028 9.362-14.236 9.362-22.7 0-8.528-3.398-16.672-9.362-22.7l-21.994-22.060c6.028-11.864 11.158-23.982 15.262-36.488h30.908c17.698 0 32.062-14.3 32.062-32.062v-105.102c0.064-17.698-14.3-32.062-31.998-32.062zM713.777 370.81c-5.13 22.444-14.172 43.926-26.804 63.996-8.016 12.632-6.156 29.176 4.424 39.758l16.544 16.608-29.048 28.984-16.608-16.608c-10.644-10.644-27.060-12.376-39.694-4.488-20.072 12.504-41.489 21.482-63.804 26.484-14.684 3.27-25.072 16.288-25.072 31.228v23.662h-40.912v-23.726c0-14.942-10.324-27.958-24.944-31.294-22.316-5.066-43.734-13.98-63.484-26.484-12.696-7.888-29.112-6.156-39.758 4.424l-17.122 17.122-29.048-29.048 17.058-16.93c10.58-10.644 12.44-27.19 4.424-39.822-12.632-20.072-21.674-41.618-26.74-63.868-3.334-14.556-16.288-24.944-31.294-24.944h-23.982v-40.976h23.982c14.942 0 27.958-10.388 31.228-24.944 5.13-22.38 14.044-43.862 26.548-63.804 8.016-12.632 6.156-29.176-4.488-39.758l-16.864-16.864 28.92-28.92 16.8 16.8c6.22 6.284 14.492 9.426 22.7 9.426 5.9 0 11.864-1.604 17.122-4.938 20.008-12.568 41.554-21.61 64.19-26.804 14.556-3.398 24.88-16.288 24.88-31.228v-23.534l41.040 0.064v23.406c0 14.942 10.388 27.958 25.008 31.228 22.38 5.066 43.99 14.172 64.19 26.868 12.632 8.016 29.176 6.156 39.758-4.424l16.672-16.608 28.984 29.048-16.736 16.736c-10.58 10.58-12.44 27.060-4.488 39.694 12.568 20.008 21.482 41.424 26.484 63.548 3.27 14.684 16.288 25.072 31.228 25.072h23.086v40.912h-23.086c-15.006 0-27.958 10.388-31.294 24.944zM513.001 151.566c-95.868 0-173.908 77.976-173.908 173.78 0 95.868 78.040 173.844 173.908 173.844s173.908-77.976 173.908-173.844c0-95.803-78.040-173.78-173.908-173.78zM622.655 325.345c0-60.56-49.094-109.654-109.654-109.654s-109.654 49.094-109.654 109.654c0 60.56 49.094 109.654 109.654 109.654s109.654-49.094 109.654-109.654z" />
<glyph unicode="&#xe972;" glyph-name="notification-send-eye-circle" d="M512.937 139.639c-202.122 0-362.179 155.632-368.976 162.3-6.092 6.028-9.49 14.236-9.49 22.828 0 8.528 3.462 16.8 9.49 22.764 4.36 4.36 74.77 72.59 179.422 119.272l-151.4 149.54c-67.075-78.49-107.858-180.192-107.858-291.577 0-247.523 200.968-448.684 448.748-448.684 113.438 0 216.743 42.386 295.746 111.706l-172.754 170.573c-38.411-11.286-79.58-18.724-122.928-18.724zM407.58 325.025c0-58.226 47.26-105.55 105.486-105.55 17.506 0 33.794 4.682 48.414 12.312l-142.23 140.37c-7.182-14.236-11.67-30.074-11.67-47.132zM512.873 773.837c-113.502 0-216.743-42.45-295.746-111.898l172.754-170.573c38.411 11.35 79.644 18.788 123.056 18.788 202.251 0 362.372-155.952 369.104-162.622 6.092-6.028 9.49-14.236 9.49-22.764 0-8.592-3.462-16.8-9.49-22.828-4.424-4.36-74.898-72.462-179.678-119.080l151.4-149.54c67.268 78.49 108.115 180.192 108.115 291.449 0 248.164-200.968 449.069-449.004 449.069zM215.204 324.832c30.78-25.008 86.762-65.087 155.952-92.212-17.314 26.612-27.702 58.29-27.702 92.404 0 34.050 10.324 65.664 27.702 92.276-69.256-27.19-125.172-67.396-155.952-92.468zM810.799 324.768c-30.716 25.008-86.634 65.152-155.76 92.276 17.314-26.548 27.574-58.034 27.574-92.020 0-34.178-10.324-65.856-27.766-92.468 69.32 27.060 125.172 67.14 155.952 92.212zM618.487 325.025c0 58.098-47.26 105.358-105.422 105.358-17.634 0-34.114-4.81-48.8-12.504l142.294-140.498c7.374 14.364 11.928 30.396 11.928 47.645z" />
<glyph unicode="&#xe973;" glyph-name="notification-send-x-circle" d="M513.001 773.837c-247.844 0-448.876-200.776-448.876-448.876 0-247.844 201.032-448.876 448.876-448.876 248.1 0 448.876 201.032 448.876 448.876 0 248.1-200.776 448.876-448.876 448.876zM698.708 184.655c12.504-12.504 12.504-32.832 0-45.336-6.284-6.284-14.492-9.362-22.7-9.362s-16.416 3.142-22.7 9.362l-140.306 140.306-140.306-140.306c-6.284-6.284-14.492-9.362-22.7-9.362s-16.416 3.142-22.7 9.362c-12.504 12.504-12.504 32.832 0 45.336l140.37 140.306-140.37 140.37c-12.504 12.504-12.504 32.832 0 45.336s32.832 12.504 45.336 0l140.37-140.306 140.306 140.306c12.504 12.504 32.832 12.504 45.336 0s12.504-32.832 0-45.336l-140.306-140.37 140.37-140.306z" />
<glyph unicode="&#xe974;" glyph-name="checklist1" d="M384.375 722.862h640.626v-128.125h-640.626v128.125zM0 786.925v-256.25h256.25v256.25h-256.25zM384.375 402.549h640.626v-128.125h-640.626v128.125zM0 466.612v-256.25h256.25v256.25h-256.25zM192.188 274.424h-128.125v128.125h128.125v-128.125zM384.375 82.237h640.626v-128.125h-640.626v128.125zM0 146.299v-256.25h256.25v256.25h-256.25zM192.188-45.889h-128.125v128.125h128.125v-128.125z" />
<glyph unicode="&#xe975;" glyph-name="checklist2" d="M384.375 722.862h640.626v-128.125h-640.626v128.125zM0 786.925v-256.25h256.25v256.25h-256.25zM384.375 402.549h640.626v-128.125h-640.626v128.125zM0 466.612v-256.25h256.25v256.25h-256.25zM384.375 82.237h640.626v-128.125h-640.626v128.125zM0 146.299v-256.25h256.25v256.25h-256.25z" />
<glyph unicode="&#xe976;" glyph-name="tilelist2" d="M64.063 786.925v-384.375h384.375v384.375h-384.375zM576.563 786.925v-384.375h384.375v384.375h-384.375zM896.876 466.612h-256.25v256.25h256.25v-256.25zM576.563 274.424v-384.375h384.375v384.375h-384.375zM896.876-45.889h-256.25v256.25h256.25v-256.25zM64.063 274.424v-384.375h384.375v384.375h-384.375zM384.375-45.889h-256.25v256.25h256.25v-256.25z" />
<glyph unicode="&#xe977;" glyph-name="tilelist1" d="M64.063 786.925v-384.375h384.375v384.375h-384.375zM576.563 786.925v-384.375h384.375v384.375h-384.375zM576.563 274.424v-384.375h384.375v384.375h-384.375zM64.063 274.424v-384.375h384.375v384.375h-384.375z" />
<glyph unicode="&#xe978;" glyph-name="190822-person" d="M511.808 354.432c105.536 0 191.232 94.464 191.232 222.784-0.064 128.32-28.16 222.784-191.232 222.784-163.2 0-191.296-94.464-191.296-222.784-0.064-128.32 85.632-222.784 191.296-222.784zM150.464 34.752c-0.064 7.744-0.064 2.176 0 0v0zM873.088 28.608c0.064 2.112 0 14.912 0 0v0zM872.64 44.096c-3.584 223.552-32.768 252.096-256.192 292.48 0 0-31.424-40.128-104.64-40.128-73.344 0-104.768 40.128-104.768 40.128-220.992-39.936-251.968-67.584-256-285.248-0.32-17.728-0.512-18.752-0.512-16.64 0-3.904 0-11.008 0-23.488 0 0 53.184-107.264 361.344-107.264 308.032 0 361.216 107.264 361.216 107.264 0 8 0 13.568 0.064 17.344-0.192-1.152-0.32 1.28-0.512 15.552z" />
<glyph unicode="&#xe979;" glyph-name="190822-group" horiz-adv-x="1344" d="M493.568 493.248c0-112.384 75.008-195.072 167.552-195.072 92.352 0 167.36 82.688 167.36 195.072 0 112.32-24.64 194.944-167.36 194.944-142.848 0-167.552-82.624-167.552-194.944zM977.024 26.688c-3.264 195.584-28.8 220.736-224.192 255.808 0 0-27.648-35.008-91.712-35.008-64.192 0-91.776 35.008-91.776 35.008-193.408-34.816-220.48-58.944-224.064-249.472-0.256-15.616-0.384-16.384-0.448-14.528 0-3.392 0-9.728 0-20.608 0 0 46.656-93.888 316.288-93.888 269.568 0 316.096 93.888 316.096 93.888 0 6.976 0 11.904 0 15.296 0-1.216-0.064 0.96-0.192 13.504zM1253.952 124.992c0.192 1.664 0 12.928 0 0v0zM829.44 654.336c14.4-20.8 24.256-45.696 30.144-76.032 4.544-24 6.656-50.944 6.656-84.992 0-21.12-2.304-41.728-6.784-61.504 23.296-13.952 50.048-21.696 78.208-21.696 92.672 0 167.552 82.688 167.552 194.944s-24.704 194.944-167.68 194.944c-98.432 0-140.672-39.36-157.376-100.608 19.776-11.392 36.352-26.496 49.28-45.056zM1253.632 138.432c-3.264 195.648-28.736 220.672-224.256 255.936 0 0-27.584-35.008-91.84-35.008-56.512 0-84.608 27.392-90.368 33.792-9.792-23.872-22.912-45.44-39.232-64.256-4.736-5.44-9.728-10.496-14.912-15.424 39.424-7.68 66.56-14.592 89.28-22.4 37.056-12.864 63.488-29.12 83.008-51.136 20.032-22.464 32.512-50.496 39.936-88.448 5.76-29.888 8.64-67.008 9.408-124.16 0.064-4.096 0.064-6.784 0.064-8.64 201.856 15.68 239.232 91.008 239.232 91.008 0 7.104 0 11.904 0 15.36 0-1.28-0.192 0.832-0.32 13.376zM380.288 410.048c29.76 0 57.728 8.64 81.984 24-4.16 19.008-6.4 38.912-6.4 59.2 0 34.048 2.176 61.056 6.784 84.992 5.824 30.4 15.68 55.296 30.080 76.096 12.16 17.408 27.392 31.744 45.632 42.944-16.384 62.4-58.432 102.72-158.080 102.72-142.848 0-167.424-82.688-167.424-195.008s74.88-194.944 167.424-194.944zM441.152 291.52c22.4 7.552 49.088 14.208 88 21.824-5.12 4.928-10.112 9.984-14.848 15.424-16.64 19.072-29.888 41.088-39.68 65.088-0.896 0.256-1.728 0.32-2.624 0.512 0 0-27.648-35.008-91.712-35.008-64.192 0-91.776 35.008-91.776 35.008-193.344-34.816-220.48-59.008-224.064-249.536-0.32-15.488-0.448-16.384-0.448-14.656 0-3.392 0-9.6 0-20.544 0 0 37.824-76.288 243.008-91.328 0 1.536 0.064 3.008 0.256 4.48 0.064 1.856 0.128 5.184 0.256 11.008 1.856 100.928 10.496 163.968 50.688 207.872 19.712 21.312 46.016 37.248 82.944 49.856z" />
<glyph unicode="&#xe97a;" glyph-name="folder_close" horiz-adv-x="952" d="M951.786 503.219v-402.679q0-52.622-37.751-90.374t-90.374-37.751h-695.536q-52.622 0-90.374 37.751t-37.751 90.374v549.107q0 52.622 37.751 90.374t90.374 37.751h183.036q52.622 0 90.374-37.751t37.751-90.374v-18.304h384.375q52.622 0 90.374-37.751t37.751-90.374z" />
<glyph unicode="&#xe97b;" glyph-name="folder_open" horiz-adv-x="1098" d="M1074.764 306.456q0-17.731-17.731-37.751l-192.188-226.507q-24.595-29.171-68.924-49.477t-82.080-20.306h-622.322q-19.448 0-34.605 7.436t-15.158 24.595q0 17.731 17.731 37.751l192.188 226.507q24.595 29.171 68.924 49.477t82.080 20.306h622.322q19.448 0 34.605-7.436t15.158-24.595zM878.572 503.219v-91.518h-475.894q-53.767 0-112.681-27.17t-93.806-68.353l-195.62-229.939q0 2.288-0.286 7.15t-0.286 7.15v549.107q0 52.622 37.751 90.374t90.374 37.751h183.036q52.622 0 90.374-37.751t37.751-90.374v-18.304h311.161q52.622 0 90.374-37.751t37.751-90.374z" />
<glyph unicode="&#xe97c;" glyph-name="asc" d="M441.984 390.656l-35.84 90.624h-173.312l-35.264-90.624h-82.176l160.512 412.736h87.232l161.088-412.736h-82.24zM320.064 705.984l-58.112-151.488h115.776l-57.664 151.488zM156.48-99.392v72.128l215.936 268.032h-199.68v73.152h304.704v-69.312l-220.864-270.016h228.16v-73.984h-328.256zM890.368 125.504l-90.56-90.496v794.624h-83.776v-794.624l-90.688 90.496-59.2-59.392 191.68-191.744 191.872 191.744z" />
<glyph unicode="&#xe97d;" glyph-name="desc" d="M890.368 125.504l-90.56-90.496v794.624h-83.776v-794.624l-90.688 90.496-59.2-59.392 191.68-191.744 191.872 191.744zM441.984-99.392l-35.84 90.624h-173.312l-35.264-90.624h-82.176l160.512 412.736h87.232l161.088-412.736h-82.24zM320.064 216l-58.112-151.488h115.776l-57.664 151.488zM156.48 390.016v72.128l215.936 268.032h-199.68v73.152h304.704v-69.312l-220.864-270.016h228.16v-73.984h-328.256z" />
<glyph unicode="&#xe97e;" glyph-name="sum" d="M721.216 860.736h302.784v-302.848h-302.784v302.848zM158.208-84.864h331.072v75.584h-255.488v71.936h-75.584zM489.28 707.328v75.584h-331.072v-146.944h75.584v71.36zM721.216 503.552h302.784v-302.848h-302.784v302.848zM721.216 144.32h302.784v-302.912h-302.784v302.912zM0 386.752h392v-75.648h-392v75.648zM158.208 544.96h75.648v-392h-75.648v392z" />
<glyph unicode="&#xe97f;" glyph-name="no-sum" d="M0 386.752h392v-75.648h-392v75.648zM960 796.736v-174.848h-174.784v174.848h174.784zM1024 860.736h-302.784v-302.848h302.784v302.848zM960 439.552v-174.848h-174.784v174.848h174.784zM1024 503.552h-302.784v-302.848h302.784v302.848zM960 80.32v-174.912h-174.784v174.912h174.784zM1024 144.32h-302.784v-302.912h302.784v302.912z" />
<glyph unicode="&#xe981;" glyph-name="fa-caret-left" d="M741.727 710.811l-456.447-399.391 456.447-399.391v798.782z" />
<glyph unicode="&#xe98a;" glyph-name="fa-clip" d="M823.316 417.83l-374.971-363.161c-0.572-0.572-1.141-1.027-1.656-1.542-53.575-51.066-138.988-52.149-190.681-1.997-54.946 51.464-56.030 126.037 0.913 183.321 0.455 0.455 0.913 1.027 1.198 1.311 0.572 0.572 1.027 1.141 1.542 1.542l356.257 345.188c32.636 30.867 84.442 31.553 115.88 1.027 18.941-26.759 30.867-80.849-1.027-112.114l-3.024-2.91-225.827-218.695c0 0-130.258-124.381-130.372-124.496-11.926-10.725-30.298-10.785-41.595 0.114-11.126 10.785-11.126 26.759 0 38.456 0.341 0.341 111.886 108.634 111.886 108.634l158.444 153.424-32.409 31.382-237.124-229.65-28.87-31.325c0-0.114-0.114-0.228-0.228-0.228-0.228-0.341-0.455-0.572-0.799-0.913-29.669-29.442-33.663-72.118-4.449-100.418 29.212-28.415 77.025-26.19 107.437 2.569l0.572 0.572c0 0.114 0.114 0.114 0.114 0.228 0 0 0.114 0.114 0.114 0.228l132.028 125.58 54.26 50.838 66.414 62.078 104.983 101.502c50.039 48.269 51.578 127.405 3.653 176.53l-1.198 1.425c-48.041 49.239-127.462 49.925-177.5 1.656l-159.014-154.050c-1.141-1.027-1.883-2.338-3.024-3.479l-198.040-191.708c-0.228-0.228-0.572-0.455-0.913-0.799-0.398-0.455-0.856-0.97-1.425-1.542l-0.398-0.455c-70.12-70.007-71.205-179.955-1.883-247.166 70.007-67.782 185.204-66.070 257.322 3.767 0.341 0.341 0.455 0.572 0.913 0.913l375.029 363.047-32.523 31.325z" />
<glyph unicode="&#xe998;" glyph-name="fa-home" d="M422.214-87.97v281.913h182.578v-281.913h228.224v375.941h136.934l-456.447 422.842-456.447-422.842h136.934v-375.941h228.224z" />
<glyph unicode="&#xe99b;" glyph-name="fa-lock" d="M481.409 760.736c-117.335 0-211.82-96.218-211.82-215.671v-107.899h-35.302c-58.091 0-105.909-48.654-105.909-107.707v-359.516c0-59.182 47.821-107.835 105.909-107.835h494.311c58.091 0 105.845 48.654 105.845 107.835v359.516c0 59.054-47.757 107.771-105.845 107.771h-35.238v107.835c0 119.454-94.484 215.671-211.949 215.671zM481.409 688.846c80.427 0 141.214-62.005 141.214-143.78v-107.899h-282.362v107.899c0 81.776 60.849 143.78 141.15 143.78z" />
<glyph unicode="&#xe9af;" glyph-name="fa-user" d="M738.16 536.079c0-124.075-100.582-224.657-224.657-224.657s-224.657 100.582-224.657 224.657c0 124.075 100.582 224.657 224.657 224.657s224.657-100.582 224.657-224.657zM513.502 236.578c-248.086 0-449.315-126.257-449.315-282.041 0-3.98 0-17.843 0-21.055v-71.378h898.631v71.378c0 3.209 0 17.139 0 21.055 0 155.784-201.293 282.041-449.315 282.041z" />
<glyph unicode="&#xf002;" glyph-name="fa-search" d="M114.111 433.806c0-152.568 124.381-276.949 276.949-276.949 65.33 0 124.61 23.564 172.081 61.506l306.219-306.39 43.533 43.533-306.447 306.39c37.999 47.413 61.506 106.694 61.506 171.967 0 152.568-124.324 276.949-276.892 276.949s-276.949-124.439-276.949-277.007zM175.675 433.806c0 119.361 96.083 215.329 215.272 215.329 119.246 0 215.386-96.026 215.386-215.329 0-119.418-96.14-215.442-215.386-215.442-119.189 0-215.272 96.083-215.272 215.442z" />
<glyph unicode="&#xf003;" glyph-name="fa-envelope-o" d="M884.367 710.811h-741.727c-47.242 0-85.583-38.34-85.583-85.583v-570.559c0-47.242 38.34-85.583 85.583-85.583h741.727c47.242 0 85.583 38.34 85.583 85.583v570.559c0 47.242-38.34 85.583-85.583 85.583zM855.838 653.756c4.165 0 7.818-1.482 11.695-2.338 20.085-4.279 35.375-18.657 41.479-37.942l-395.854-343.933-98.706 85.699-47.583 41.537-248.992 216.014c5.934 19.741 21.396 34.348 41.936 38.685 3.767 0.799 7.36 2.282 11.354 2.282h684.671zM114.111 533.083l206.371-179.441-206.371-192.335v371.776zM171.168 26.142c-7.473 0-14.549 1.656-21.112 4.222-4.563 1.883-8.444 4.851-12.324 7.818-1.425 1.141-3.138 1.77-4.449 3.024-9.471 8.902-15.803 21.112-17.743 34.747 0 0.341-0.114 0.572-0.114 0.856l252.872 235.527 96.938-84.442 47.928-41.595 145.093 125.98 253.271-235.982c-0.114-0.743-0.341-1.311-0.455-2.054-1.027-6.105-2.74-12.040-5.476-17.402-0.341-0.572-0.799-1.027-1.084-1.482-2.91-5.249-6.503-10.042-10.785-14.094-1.94-1.77-4.392-2.91-6.617-4.449-3.252-2.225-6.333-4.794-10.042-6.276-6.503-2.74-13.635-4.392-21.226-4.392h-684.671zM912.894 160.622l-206.942 193.019 206.942 180.011v-373.032z" />
<glyph unicode="&#xf006;" glyph-name="fa-star-o" d="M912.894 405.906l-275.808 41.993-123.583 262.914-122.956-262.914-276.436-41.993 199.696-204.603-46.901-289.273 246.596 136.307 247.109-136.307-47.128 289.216 199.411 204.659zM515.556 106.191l-184.177-101.902 35.089 215.728-148.972 152.795 206.428 31.496 91.631 196.33 92.487-196.33 205.801-31.496-148.687-152.795 35.146-215.728-184.746 101.902z" />
<glyph unicode="&#xf007;" glyph-name="user" horiz-adv-x="735" d="M734.293 9.313q0-62.53-35.854-107.276t-86.336-44.747h-489.91q-50.482 0-86.336 44.747t-35.854 107.276q0 48.762 4.877 92.074t18.072 87.197 33.561 75.149 53.926 51.057 77.157 19.79q75.149-73.43 179.557-73.43t179.557 73.43q43.599 0 77.157-19.79t53.926-51.057 33.561-75.149 18.072-87.197 4.877-92.074zM587.435 518.155q0-91.213-64.538-155.751t-155.751-64.538-155.751 64.538-64.538 155.751 64.538 155.751 155.751 64.538 155.751-64.538 64.538-155.751z" />
<glyph unicode="&#xf00c;" glyph-name="fa-check" d="M898.695 503.983l-96.41 96.282-385.127-385.127-192.5 192.564-96.282-96.282 288.846-288.846z" />
<glyph unicode="&#xf00d;" glyph-name="fa-remove" d="M855.895 549.97l-103.727 103.727-238.665-238.551-238.551 238.551-103.727-103.727 238.551-238.551-238.608-238.665 103.727-103.727 238.608 238.608 238.665-238.608 103.727 103.727-238.608 238.665z" />
<glyph unicode="&#xf015;" glyph-name="home" horiz-adv-x="955" d="M807.721 242.796v-275.36q0-14.917-10.901-25.814t-25.814-10.901h-220.288v220.288h-146.858v-220.288h-220.288q-14.917 0-25.814 10.901t-10.901 25.814v275.36q0 0.575 0.286 1.722t0.286 1.722l329.857 271.918 329.857-271.918q0.575-1.147 0.575-3.441zM935.65 282.378l-35.569-42.45q-4.587-5.163-12.048-6.31h-1.722q-7.457 0-12.048 4.016l-396.978 331.005-396.978-331.005q-6.885-4.587-13.766-4.016-7.457 1.147-12.048 6.31l-35.569 42.45q-4.587 5.738-4.016 13.481t6.31 12.334l412.466 343.627q18.358 14.917 43.599 14.917t43.599-14.917l139.975-117.027v111.865q0 8.032 5.163 13.195t13.195 5.163h110.143q8.032 0 13.195-5.163t5.163-13.195v-234.056l125.633-104.408q5.738-4.587 6.31-12.334t-4.016-13.481z" />
<glyph unicode="&#xf017;" glyph-name="fa-clock-o" d="M513.502 760.736c-247.637 0-449.315-201.679-449.315-449.315 0-247.701 201.679-449.379 449.315-449.379s449.315 201.679 449.315 449.379c0 247.637-201.679 449.315-449.315 449.315zM513.502 685.829c207.262 0 374.408-167.209 374.408-374.408 0-207.262-167.145-374.472-374.408-374.472s-374.408 167.209-374.408 374.472c0 207.262 167.145 374.408 374.408 374.408zM476.081 610.986v-336.986h262.079v74.843h-187.236v262.143h-74.843z" />
<glyph unicode="&#xf019;" glyph-name="fa-download" d="M513.502 211.572l-199.696 199.696h99.848v299.544h199.696v-299.544h99.848l-199.696-199.696zM788.056 461.193h-55.857l124.839-249.62h-143.837l-99.848-149.771h-199.696l-99.848 149.771h-143.837l124.839 249.62h-55.857l-124.839-249.62v-299.544h798.782v299.544l-124.839 249.62z" />
<glyph unicode="&#xf01e;" glyph-name="fa-rotate-right" d="M513.502 760.736c121.508 0 230.883-49.168 311.696-127.734l89.864 63.162-9.822-165.734-6.997-108.092-259.768 79.978 112.329 78.695c-63.29 55.778-146.413 89.864-237.303 89.864-198.212 0-359.452-161.239-359.452-359.452s161.239-359.452 359.452-359.452c174.977 0 320.49 126.257 352.456 292.055l88.45-18.23c-39.925-207.134-222.347-363.688-440.907-363.688-247.637 0-449.315 201.55-449.315 449.315s201.679 449.315 449.315 449.315z" />
<glyph unicode="&#xf023;" glyph-name="lock" horiz-adv-x="662" d="M183.573 371.297h293.717v110.143q0 60.807-43.025 103.833t-103.833 43.025-103.833-43.025-43.025-103.833v-110.143zM660.863 316.225v-330.432q0-22.945-16.064-39.009t-39.009-16.064h-550.719q-22.945 0-39.009 16.064t-16.064 39.009v330.432q0 22.945 16.064 39.009t39.009 16.064h18.358v110.143q0 105.555 75.725 181.279t181.279 75.725 181.279-75.725 75.725-181.279v-110.143h18.358q22.945 0 39.009-16.064t16.064-39.009z" />
<glyph unicode="&#xf02e;" glyph-name="fa-bookmark" d="M717.306 710.811h-407.55c-44.847 0-81.133-39.939-81.133-88.78l-0.398-710.003 285.279 133.112 285.279-133.112v710.003c0 48.841-36.688 88.78-81.475 88.78z" />
<glyph unicode="&#xf040;" glyph-name="fa-pencil" d="M788.969 710.811c-31.094 0-60.081-15.348-84.385-39.712v0.114l-506.142-505.115-84.328-254.070 253.157 84.672 5.192 5.135 500.894 499.753c24.307 24.42 39.541 53.575 39.541 84.729 0 31.208-15.234 60.365-39.541 84.672-24.193 24.477-53.29 39.825-84.385 39.825zM664.074 542.554l80.564-80.962-411.087-410.232-120.731-40.452 40.337 121.358 410.917 410.289z" />
<glyph unicode="&#xf045;" glyph-name="fa-share-square-o" d="M555.268 710.811v-71.549h235.527l-448.46-448.345 50.551-50.664 448.46 448.517v-235.527h71.549v357.57zM855.838-2.387c0-15.746-12.779-28.528-28.528-28.528h-627.615c-15.746 0-28.528 12.779-28.528 28.528v627.615c0 15.746 12.779 28.528 28.528 28.528h256.751v57.057h-285.279c-31.496 0-57.057-25.561-57.057-57.057v-684.671c0-31.553 25.561-57.057 57.057-57.057h684.671c31.553 0 57.057 25.504 57.057 57.057v285.279h-57.057v-256.751z" />
<glyph unicode="&#xf053;" glyph-name="fa-chevron-left" d="M741.727 1.607l-341.764 309.756 341.764 309.756-72.633 89.692-440.871-399.448 440.871-399.334 72.633 89.577z" />
<glyph unicode="&#xf054;" glyph-name="fa-chevron-right" d="M285.279 621.178l341.764-309.699-341.764-309.756 72.633-89.692 440.871 399.448-440.871 399.334-72.633-89.634z" />
<glyph unicode="&#xf056;" glyph-name="fa-minus-circl" d="M513.502 760.736c-247.765 0-449.315-201.55-449.315-449.315s201.55-449.315 449.315-449.315c247.701 0 449.315 201.55 449.315 449.315s-201.679 449.315-449.315 449.315zM770.254 247.233h-513.502v128.375h513.502v-128.375z" />
<glyph unicode="&#xf057;" glyph-name="fa-times-circle" d="M513.502 760.736c-247.765 0-449.315-201.615-449.315-449.315s201.55-449.315 449.315-449.315c247.765 0 449.315 201.615 449.315 449.315s-201.55 449.315-449.315 449.315zM663.767 200.633l22.594-22.594-45.124-45.188-22.594 22.722-105.14 105.076-105.076-105.076-22.594-22.722-45.188 45.188 22.594 22.53 105.14 105.076-127.67 127.734 45.188 45.124 22.594-22.658 105.076-105.011 105.205 105.011 22.466 22.722 45.060-45.188-22.594-22.466-105.076-105.14 105.14-105.14z" />
<glyph unicode="&#xf059;" glyph-name="fa-question-circle" d="M513.502 767.868c-251.902 0-456.447-204.489-456.447-456.447 0-251.902 204.546-456.447 456.447-456.447s456.447 204.546 456.447 456.447c0 251.959-204.546 456.447-456.447 456.447zM559.148-8.15h-91.289v91.346h91.289v-91.346zM653.632 345.654l-41.137-41.993c-32.75-33.379-53.347-60.764-53.347-129.118h-91.289v22.765c0 50.209 20.597 95.854 53.404 129.174l56.599 57.512c16.83 16.432 26.986 39.254 26.986 64.36 0 50.209-41.137 91.289-91.346 91.289-50.152 0-91.346-41.080-91.346-91.289h-91.232c0 100.875 81.705 182.578 182.578 182.578s182.578-81.705 182.578-182.578c0-40.167-16.375-76.684-42.448-102.7z" />
<glyph unicode="&#xf061;" glyph-name="fa-arrow-right" d="M569.989 653.756l-56.485-76.854 208.711-208.425h-608.102v-114.111h607.988l-208.597-208.367 56.485-76.911 342.906 342.392z" />
<glyph unicode="&#xf064;" glyph-name="fa-mail-forward" d="M579.038 630.499c-6.354-3.017-10.27-9.499-10.27-16.624v-128.247c-406.887-11.617-437.697-408.492-439.751-453.616-0.384-1.347-0.643-3.017-0.643-4.556 0-10.142 8.152-18.294 18.294-18.294h0.643c9.563 0 17.651 7.509 18.294 17.203 0.771 9.95 21.567 232.489 403.164 239.357v-128.247c0-7.061 3.98-13.607 10.27-16.688 6.418-3.081 14.058-2.118 19.577 2.31l293.146 238.201c4.3 3.529 6.869 8.859 6.869 14.378 0 5.455-2.569 10.849-6.805 14.314l-293.21 238.265c-2.761 2.182-5.842 3.596-9.179 3.98s-7.189-0.192-10.398-1.734z" />
<glyph unicode="&#xf067;" glyph-name="fa-plus" d="M912.894 254.365h-342.335v-342.335h-114.111v342.335h-342.335v114.111h342.335v342.335h114.111v-342.335h342.335v-114.111z" />
<glyph unicode="&#xf069;" glyph-name="fa-asterisk" d="M848.934 236.507h-163.465l113.769-113.769c24.989-24.989 29.442-61.051 9.929-80.564l-30.867-30.867c-19.513-19.513-55.629-15.064-80.564 9.929l-115.539 115.539v-160.898c0-35.202-22.366-63.845-49.925-63.845h-43.706c-27.558 0-49.925 28.642-49.925 63.845v163.579l-113.826-113.769c-24.989-24.989-60.993-29.442-80.506-9.929l-30.924 30.867c-19.513 19.513-15.064 55.515 9.872 80.448l109.377 109.434h-154.622c-35.316 0-63.902 22.366-63.902 49.982v43.649c0 27.558 28.585 49.925 63.902 49.925h160.898l-115.596 115.596c-24.932 24.989-29.385 61.051-9.872 80.564l30.924 30.867c19.513 19.513 55.515 15.064 80.506-9.872l113.826-113.826v163.523c-0.057 35.316 22.253 63.902 49.868 63.902h43.706c27.558 0 49.925-28.585 49.925-63.902v-160.898l115.539 115.596c24.989 24.932 61.051 29.385 80.564 9.872l30.867-30.924c19.513-19.513 15.064-55.515-9.929-80.506l-120.045-120.045h169.741c35.316 0.057 63.958-22.31 63.958-49.868v-43.649c0-27.615-28.642-49.982-63.958-49.982z" />
<glyph unicode="&#xf06a;" glyph-name="fa-exclamation-circle" d="M513.502 760.736c-247.765 0-449.315-201.615-449.315-449.315 0-247.765 201.55-449.315 449.315-449.315 247.701 0 449.315 201.55 449.315 449.315 0 247.701-201.615 449.315-449.315 449.315zM577.691 54.67h-128.375v64.189h128.375v-64.189zM577.691 183.045h-128.375v385.127h128.375v-385.127z" />
<glyph unicode="&#xf071;" glyph-name="fa-warning" d="M906.161 48.393l-348.554 635.717c-9.015 16.546-25.789 26.702-44.104 26.702s-35.032-10.156-44.218-26.702l-348.44-635.717c-9.015-16.375-9.015-36.517 0.114-52.892s25.903-26.418 44.047-26.418h696.938c18.088 0 34.861 10.042 44.047 26.418s9.186 36.574 0.171 52.892zM570.559 83.196h-114.111v57.057h114.111v-57.057zM570.559 197.309h-114.111v228.224h114.111v-228.224z" />
<glyph unicode="&#xf073;" glyph-name="fa-calendar" d="M457.645 368.362h114.111v-114.111h-114.111v114.111zM628.87 197.194h114.111v-114.111h-114.111v114.111zM628.87 368.362h114.111v-114.111h-114.111v114.111zM286.477 197.194h114.111v-114.111h-114.111v114.111zM862.97 710.811h-748.859v-798.782h798.782v798.782h-49.925zM855.838-30.914h-684.671v513.502h684.671v-513.502zM286.477 368.362h114.111v-114.111h-114.111v114.111zM457.645 197.194h114.111v-114.111h-114.111v114.111z" />
<glyph unicode="&#xf078;" glyph-name="fa-chevron-down" d="M513.438-9.519l449.379 495.915-100.838 81.776-348.54-384.485-348.476 384.485-100.774-81.776 449.251-495.915z" />
<glyph unicode="&#xf079;" glyph-name="fa-retweet" d="M342.335 539.587c106.181 0.114 347.128 0.057 453.366 0 17.231 0.743 33.148-14.094 33.262-31.78 0.341-89.692-0.114-179.384 0.114-268.961 47.014-0.228 93.857 0 140.871-0.171-62.419-70.351-125.466-140.244-188.227-210.251-2.91-5.476-6.39-0.114-9.015 2.569-61.506 69.552-124.267 137.904-185.546 207.57 46.672 0.455 93.514 0 140.301 0.284 0.455 65.671 0.398 131.513 0.114 197.299-50.607 0.228-235.926 0-286.477 0.114-32.58 34.747-66.357 68.468-98.763 103.329v0zM243.686 537.305c3.252 5.878 6.961-0.856 9.872-3.596 60.877-68.98 122.614-137.163 183.036-206.6-46.443-0.398-92.945 0.114-139.501-0.228-0.114-65.671-0.057-131.342 0-197.128 50.209-0.455 239.578 0.057 289.844-0.341 32.409-34.52 65.728-68.297 97.736-103.272-105.838 0-350.837-0.171-456.561 0.057-17.288-0.228-32.121 15.92-31.382 33.436-0.057 89.178 0.057 178.186-0.057 267.25-46.556 0.171-93.059-0.057-139.615 0.114 61.791 70.522 124.267 140.415 186.63 210.307v0z" />
<glyph unicode="&#xf080;" glyph-name="fa-bar-chart-o" d="M228.224 311.421h171.168v-285.279h-171.168v285.279zM456.447 653.756h171.168v-627.615h-171.168v627.615zM684.671 482.59h171.168v-456.447h-171.168v456.447zM171.168-30.914v741.727h-57.057v-798.782h798.782v57.057z" />
<glyph unicode="&#xf085;" glyph-name="fa-gears" d="M827.061 396.855c-6.805 24.392-16.816 47.627-28.756 69.324-0.899 26.51 80.17 98.978 80.106 108.35-0.128 10.014-80.427 90.568-90.697 90.568-9.627 0-82.675-80.941-107.963-76.513-21.567 12.644-44.353 23.173-68.489 30.874-1.606 0.835-3.529 1.542-5.65 2.374-19.641 17.203-13.415 127.028-20.092 133.574-7.253 6.997-121.058 7.125-128.375 0-6.677-6.805-1.475-111.238-20.86-129.53-2.502-0.899-4.623-1.862-6.226-2.953-27.345-7.189-53.084-18.102-77.089-31.965-27.151 0.707-98.464 80.362-107.579 80.234-10.014-0.192-90.762-80.427-90.762-90.762s93.457-93.714 74.395-112.842c0.835 0.128 1.411 0.128 2.118 0.32-12.903-22.914-23.301-47.757-30.426-73.688-23.237-17.075-125.038-11.681-131.2-18.166-6.997-7.189-7.125-120.866 0-128.247 6.805-6.805 115.667-1.027 130.557-22.082 8.216-30.874 20.988-60.016 37.487-86.719-10.59-30.746-78.951-92.302-78.823-100.774 0.064-10.142 80.492-90.697 90.633-90.697 10.398 0 93.778 93.329 112.842 74.395v0.192c24.584-12.967 50.966-22.978 78.887-29.463 13.159-31.066 8.795-119.518 14.634-125.294 7.317-6.933 121.058-7.061 128.439 0 6.677 6.869 1.347 113.034 21.183 129.788 26.766 7.896 52.057 19.193 75.357 33.184 30.746-10.849 92.302-78.887 100.838-78.823 10.014 0.192 90.633 80.427 90.633 90.762 0 9.115-74.715 77.025-76.577 104.754 14.893 25.803 26.574 53.789 33.955 83.379 28.178 14.634 121.957 9.822 127.991 15.984 6.933 7.125 7.061 121.058-0.256 128.247-6.546 6.869-115.088 1.219-130.237 22.21zM513.31 103.58c-113.227 0-205.080 91.854-205.080 205.080 0 113.485 91.854 205.272 205.080 205.272 113.421 0 205.208-91.789 205.208-205.272 0-113.292-91.789-205.080-205.208-205.080zM628.528 307.184c0-62.11-50.348-112.458-112.458-112.458s-112.458 50.348-112.458 112.458c0 62.11 50.348 112.458 112.458 112.458s112.458-50.348 112.458-112.458z" />
<glyph unicode="&#xf08b;" glyph-name="fa-sign-out" d="M838.037 710.811h-649.011c-41.421 0-74.914-33.436-74.914-74.914v-174.762h49.925v159.871c0 22.082 17.857 39.882 39.939 39.882h619.113c22.082 0 39.882-17.857 39.882-39.882v-619.056c0-22.082-17.857-39.996-39.882-39.996h-619.113c-22.082 0-39.939 17.914-39.939 39.996v159.7h-49.925v-174.762c0-41.308 33.493-74.857 74.914-74.857h649.011c41.421 0 74.857 33.55 74.857 74.857v649.011c0 41.479-33.436 74.914-74.857 74.914zM539.863 261.497l-126.207-133.055 63.047-66.641 236.497 249.62-63.047 66.641-173.449 182.979-63.047-66.527 126.207-133.169h-425.751v-99.848h49.925z" />
<glyph unicode="&#xf093;" glyph-name="fa-upload" d="M513.502 710.811l199.696-199.696h-99.848v-299.544h-199.696v299.544h-99.848l199.696 199.696zM788.056 461.193h-55.857l124.839-249.62h-143.837l-99.848-149.771h-199.696l-99.848 149.771h-143.837l124.839 249.62h-55.857l-124.839-249.62v-299.544h798.782v299.544l-124.839 249.62z" />
<glyph unicode="&#xf0a8;" glyph-name="fa-arrow-circle-left" d="M962.817 311.421c0 247.701-201.615 449.315-449.315 449.315-247.573 0-449.315-201.679-449.315-449.315 0-247.701 201.743-449.315 449.315-449.315 247.701 0 449.315 201.615 449.315 449.315zM288.846 307.698l211.82 224.657 45.959-44.676-122.728-147.376 346.358-0.192v-64.829l-347 0.256 131.392-147.76-49.875-44.74-215.928 224.657z" />
<glyph unicode="&#xf0a9;" glyph-name="fa-arrow-circle-right" d="M64.189 311.421c0-247.701 201.615-449.315 449.315-449.315 247.573 0 449.315 201.679 449.315 449.315 0 247.701-201.743 449.315-449.315 449.315-247.701 0-449.315-201.615-449.315-449.315zM738.16 315.143l-211.82-224.657-45.959 44.676 138.774 147.376-330.311 0.192v64.829l330.953-0.256-139.416 147.696 45.895 44.74 211.885-224.593z" />
<glyph unicode="&#xf0ab;" glyph-name="fa-arrow-circle-down" d="M513.502 760.736c-247.701 0-449.315-201.615-449.315-449.315 0-247.573 201.615-449.315 449.315-449.315s449.315 201.743 449.315 449.315c0 247.701-201.615 449.315-449.315 449.315zM517.226 86.763l-224.657 211.82 44.74 45.959 147.312-138.774 0.192 330.311h64.829l-0.256-330.953 147.76 139.416 44.74-45.895-224.657-211.885z" />
<glyph unicode="&#xf0ac;" glyph-name="fa-globe" d="M513.502 710.811c-220.577 0-399.391-178.813-399.391-399.391 0-220.521 178.813-399.391 399.391-399.391s399.391 178.871 399.391 399.391c0 220.577-178.813 399.391-399.391 399.391zM165.29 286.43h178.813c2.282-47.985 10.441-100.589 20.426-149.771h-153.195c-25.959 44.733-42.164 95.511-46.044 149.771zM344.104 336.354h-178.813c3.88 54.431 20.085 105.154 46.044 149.771h153.253c-10.042-49.012-18.202-101.616-20.483-149.771zM414.568 486.126h197.927c10.099-49.125 18.202-101.73 20.483-149.771h-238.95c2.282 48.041 10.441 100.646 20.54 149.771zM394.028 286.43h238.95c-2.282-47.985-10.441-100.475-20.483-149.771h-197.927c-10.099 49.296-18.258 101.787-20.54 149.771zM682.902 286.43h178.813c-3.824-54.26-20.085-105.039-46.044-149.771h-153.253c10.042 49.182 18.202 101.787 20.483 149.771zM682.902 336.354c-2.282 48.155-10.441 100.76-20.426 149.771h153.253c25.959-44.618 42.164-95.397 46.044-149.771h-178.871zM780.867 536.051h-129.459c-10.554 44.275-21.226 82.331-28.642 107.093 62.192-20.483 116.737-58.027 158.101-107.093zM568.904 656.096c7.075-22.935 20.028-67.097 32.523-120.045h-175.847c12.552 52.949 25.447 97.053 32.523 120.045 18.145 2.91 36.517 4.794 55.401 4.794s37.256-1.883 55.401-4.794zM404.298 643.143c-7.417-24.762-18.145-62.818-28.699-107.093h-129.402c41.251 49.068 95.854 86.61 158.101 107.093zM246.196 86.735h129.402c10.554-44.218 21.226-82.217 28.642-106.979-62.192 20.54-116.737 57.969-158.044 106.979zM458.101-33.14c-7.075 22.935-20.028 66.983-32.523 119.931h175.847c-12.552-52.834-25.391-96.938-32.466-119.931-18.145-2.91-36.574-4.907-55.458-4.907s-37.256 1.997-55.401 4.907zM622.765-20.245c7.473 24.762 18.145 62.761 28.642 106.979h129.402c-41.308-49.012-95.854-86.439-158.044-106.979z" />
</font>
</defs>
</svg>
